<svg width="48" height="48" viewBox="0 0 48 48" fill="none" xmlns="http://www.w3.org/2000/svg">
<path d="M21 25.875H6C5.379 25.875 4.875 26.379 4.875 27C4.875 27.621 5.379 28.125 6 28.125H18.2835L2.2035 44.2035C2.001 44.4075 1.8765 44.688 1.8765 44.997C1.8765 45.6195 2.3805 46.1235 3.003 46.1235C3.312 46.1235 3.5925 45.999 3.795 45.7965L19.875 29.7165V41.9985C19.875 42.6195 20.379 43.1235 21 43.1235C21.621 43.1235 22.125 42.6195 22.125 41.9985V26.9985C22.125 26.3775 21.621 25.875 21 25.875ZM21 4.875C20.379 4.875 19.875 5.379 19.875 6V18.2835L3.795 2.2035C3.5925 2.007 3.315 1.8855 3.0105 1.8855C2.3895 1.8855 1.8855 2.3895 1.8855 3.0105C1.8855 3.315 2.007 3.5925 2.205 3.795L18.285 19.875H6.0015C5.3805 19.875 4.8765 20.379 4.8765 21C4.8765 21.621 5.3805 22.125 6.0015 22.125H21.0015C21.6225 22.125 22.1265 21.621 22.1265 21V6C22.1265 5.379 21.6225 4.875 21.0015 4.875H21ZM27 22.125H42C42.621 22.125 43.125 21.621 43.125 21C43.125 20.379 42.621 19.875 42 19.875H29.718L45.798 3.795C45.999 3.591 46.125 3.312 46.125 3.003C46.125 2.3805 45.621 1.8765 44.9985 1.8765C44.688 1.8765 44.4075 2.001 44.205 2.2035L28.1265 18.2835V6C28.1265 5.379 27.6225 4.875 27.0015 4.875C26.3805 4.875 25.8765 5.379 25.8765 6V21C25.8765 21.621 26.379 22.125 27 22.125ZM29.718 28.125H42C42.621 28.125 43.125 27.621 43.125 27C43.125 26.379 42.621 25.875 42 25.875H27C26.379 25.875 25.8765 26.379 25.875 27V42C25.875 42.621 26.379 43.125 27 43.125C27.621 43.125 28.125 42.621 28.125 42V29.718L44.2035 45.798C44.4075 46.002 44.6895 46.128 45 46.128C45.6225 46.128 46.1265 45.624 46.1265 45.0015C46.1265 44.691 46.0005 44.409 45.7965 44.205L29.718 28.125Z" fill="white"/>
</svg>
