<svg width="48" height="48" viewBox="0 0 48 48" fill="none" xmlns="http://www.w3.org/2000/svg">
<path d="M45 19.125C45.621 19.125 46.125 18.621 46.125 18V3C46.1235 2.8515 46.0935 2.7105 46.0395 2.5815L46.0425 2.589L46.041 2.5695L46.038 2.5665C45.9795 2.4285 45.8985 2.31 45.7995 2.211L45.7965 2.205L45.792 2.2035C45.756 2.1765 45.7155 2.148 45.675 2.124L45.669 2.121C45.636 2.0955 45.6 2.07 45.561 2.0475L45.5565 2.0445C45.399 1.9425 45.207 1.881 45 1.875H29.9985C29.3775 1.875 28.8735 2.379 28.8735 3C28.8735 3.621 29.3775 4.125 29.9985 4.125H42.2805L23.9985 22.407L5.715 4.125H17.9985C18.6195 4.125 19.1235 3.621 19.1235 3C19.1235 2.379 18.6195 1.875 17.9985 1.875H2.9985C2.85 1.8765 2.709 1.9065 2.58 1.9605L2.5875 1.9575L2.568 1.959L2.565 1.962C2.3835 2.046 2.2335 2.169 2.1225 2.3235L2.1195 2.3265C2.094 2.3595 2.067 2.397 2.0445 2.4375L2.0415 2.442C1.941 2.5995 1.878 2.7915 1.8735 2.997V17.9985C1.8735 18.6195 2.3775 19.1235 2.9985 19.1235C3.6195 19.1235 4.1235 18.6195 4.1235 17.9985V5.715L22.4055 23.9985L4.1235 42.2805V29.9985C4.1235 29.3775 3.6195 28.8735 2.9985 28.8735C2.3775 28.8735 1.8735 29.3775 1.8735 29.9985V44.9985C1.875 45.147 1.905 45.288 1.959 45.417L1.956 45.4095L1.9575 45.429L1.9605 45.432C2.0205 45.5715 2.1015 45.69 2.2005 45.7905L2.202 45.795L2.208 45.798C2.2425 45.825 2.2815 45.8505 2.3205 45.8745L2.325 45.8775C2.358 45.903 2.3955 45.9285 2.433 45.951L2.4375 45.954C2.5965 46.056 2.7885 46.119 2.994 46.1235H17.9955C18.6165 46.1235 19.1205 45.6195 19.1205 44.9985C19.1205 44.3775 18.6165 43.8735 17.9955 43.8735H5.7135L23.9955 25.5915L42.2775 43.8735H29.9955C29.3745 43.8735 28.8705 44.3775 28.8705 44.9985C28.8705 45.6195 29.3745 46.1235 29.9955 46.1235H44.9955C45.1515 46.122 45.2985 46.092 45.4335 46.035L45.426 46.038L45.429 46.035C45.5655 45.9765 45.684 45.897 45.783 45.798L45.792 45.7935L45.7965 45.7845C45.8235 45.75 45.849 45.711 45.873 45.672L45.876 45.6675C45.9015 45.636 45.9255 45.6 45.948 45.5625L45.951 45.558C46.053 45.399 46.116 45.207 46.1205 45V29.9985C46.1205 29.3775 45.6165 28.8735 44.9955 28.8735C44.3745 28.8735 43.8705 29.3775 43.8705 29.9985V42.2805L25.5885 23.9985L43.8705 5.7165V17.9985C43.8705 18.6195 44.3745 19.1235 44.9955 19.1235L45 19.125Z" fill="white"/>
</svg>
