<svg width="32" height="32" viewBox="0 0 32 32" fill="none" xmlns="http://www.w3.org/2000/svg">
	<!-- https://www.svgrepo.com/svg/473026/bolt-lightning -->
	<path fill="currentColor" d="M28.678 12.681C28.556 12.425 28.299 12.251 28.002 12.251C28.001 12.251 28.001 12.251 28 12.251L13.165 12.259L17.683 2.311C17.726 2.22 17.751 2.113 17.751 2C17.751 1.586 17.415 1.25 17.001 1.25H8C7.65 1.25 7.357 1.489 7.274 1.813L7.273 1.818L3.273 17.818C3.259 17.872 3.251 17.935 3.251 17.999C3.251 18.413 3.586 18.749 4.001 18.75H16.04L13.273 29.818C13.259 29.872 13.251 29.935 13.251 29.999C13.251 30.413 13.587 30.749 14.001 30.749C14.234 30.749 14.441 30.643 14.579 30.477L14.58 30.476L28.579 13.477C28.686 13.349 28.751 13.182 28.751 13.001C28.751 12.884 28.724 12.774 28.677 12.676L28.679 12.68L28.678 12.681ZM15.533 26.959L17.727 18.182C17.741 18.127 17.749 18.065 17.749 18C17.749 17.586 17.413 17.25 16.999 17.25H4.96L8.585 2.75H15.835L11.316 12.699C11.273 12.79 11.248 12.897 11.248 13.01C11.248 13.424 11.584 13.76 11.998 13.76L26.409 13.752L15.533 26.959Z"/>
</svg>
