<svg width="48" height="48" viewBox="0 0 48 48" fill="none" xmlns="http://www.w3.org/2000/svg">
<path d="M43.017 19.0215C42.834 18.6375 42.4485 18.3765 42.003 18.3765C42.0015 18.3765 42.0015 18.3765 42 18.3765L19.7475 18.3885L26.5245 3.4665C26.589 3.33 26.6265 3.1695 26.6265 3C26.6265 2.379 26.1225 1.875 25.5015 1.875H12C11.475 1.875 11.0355 2.2335 10.911 2.7195L10.9095 2.727L4.9095 26.727C4.8885 26.808 4.8765 26.9025 4.8765 26.9985C4.8765 27.6195 5.379 28.1235 6.0015 28.125H24.06L19.9095 44.727C19.8885 44.808 19.8765 44.9025 19.8765 44.9985C19.8765 45.6195 20.3805 46.1235 21.0015 46.1235C21.351 46.1235 21.6615 45.9645 21.8685 45.7155L21.87 45.714L42.8685 20.2155C43.029 20.0235 43.1265 19.773 43.1265 19.5015C43.1265 19.326 43.086 19.161 43.0155 19.014L43.0185 19.02L43.017 19.0215ZM23.2995 40.4385L26.5905 27.273C26.6115 27.1905 26.6235 27.0975 26.6235 27C26.6235 26.379 26.1195 25.875 25.4985 25.875H7.44L12.8775 4.125H23.7525L16.974 19.0485C16.9095 19.185 16.872 19.3455 16.872 19.515C16.872 20.136 17.376 20.64 17.997 20.64L39.6135 20.628L23.2995 40.4385Z" fill="white"/>
</svg>
