<svg width="32" height="32" viewBox="0 0 32 32" fill="none" xmlns="http://www.w3.org/2000/svg">
	<!-- https://www.svgrepo.com/svg/473104/chart-line-up -->
	<path fill="currentColor" d="M6.693 25.684C6.783 25.726 6.889 25.75 7.001 25.75C7.304 25.75 7.565 25.57 7.682 25.311L7.684 25.306L12.168 15.294L16.305 16.709C16.377 16.734 16.46 16.749 16.547 16.749C16.763 16.749 16.957 16.658 17.094 16.513L24.249 8.894V11.545C24.249 11.959 24.585 12.295 24.999 12.295C25.413 12.295 25.749 11.959 25.749 11.545V6.999L25.746 6.983L25.741 6.96C25.732 6.763 25.648 6.588 25.516 6.46L25.512 6.452L25.494 6.445C25.364 6.325 25.19 6.251 24.999 6.249H20.454C20.04 6.249 19.704 6.585 19.704 6.999C19.704 7.413 20.04 7.749 20.454 7.749H23.265L16.331 15.133L12.005 13.654C11.933 13.629 11.851 13.615 11.765 13.615C11.462 13.615 11.2 13.794 11.08 14.053L11.078 14.058L6.314 24.694C6.273 24.784 6.248 24.889 6.248 25C6.248 25.303 6.428 25.564 6.687 25.682L6.693 25.684ZM30 29.25H2.75V2C2.75 1.586 2.414 1.25 2 1.25C1.586 1.25 1.25 1.586 1.25 2V30C1.25 30.414 1.586 30.75 2 30.75H30C30.414 30.75 30.75 30.414 30.75 30C30.75 29.586 30.414 29.25 30 29.25Z"/>
</svg>
