<svg width="32" height="32" viewBox="0 0 32 32" fill="none" xmlns="http://www.w3.org/2000/svg">
	<!-- https://www.svgrepo.com/svg/473123/clock -->
	<path d="M16 1.25C7.854 1.25 1.25 7.854 1.25 16C1.25 24.146 7.854 30.75 16 30.75C24.146 30.75 30.75 24.146 30.75 16C30.74 7.858 24.141 1.26 16 1.25ZM16 29.25C8.682 29.25 2.75 23.318 2.75 16C2.75 8.682 8.682 2.75 16 2.75C23.318 2.75 29.25 8.682 29.25 16C29.242 23.314 23.313 29.242 16 29.25ZM16.75 15.689V6C16.75 5.586 16.414 5.25 16 5.25C15.586 5.25 15.25 5.586 15.25 6V16C15.25 16.207 15.334 16.395 15.47 16.53L19.469 20.531C19.605 20.667 19.793 20.751 20 20.751C20.415 20.751 20.751 20.415 20.751 20C20.751 19.793 20.667 19.605 20.531 19.469L16.75 15.689Z" fill="white"/>
</svg>
