<svg width="48" height="48" viewBox="0 0 48 48" fill="none" xmlns="http://www.w3.org/2000/svg">
<path d="M24 1.875C11.781 1.875 1.875 11.781 1.875 24C1.875 36.219 11.781 46.125 24 46.125C36.219 46.125 46.125 36.219 46.125 24C46.11 11.787 36.2115 1.89 24 1.875ZM24 43.875C13.023 43.875 4.125 34.977 4.125 24C4.125 13.023 13.023 4.125 24 4.125C34.977 4.125 43.875 13.023 43.875 24C43.863 34.971 34.9695 43.863 24 43.875ZM25.125 23.5335V9C25.125 8.379 24.621 7.875 24 7.875C23.379 7.875 22.875 8.379 22.875 9V24C22.875 24.3105 23.001 24.5925 23.205 24.795L29.2035 30.7965C29.4075 31.0005 29.6895 31.1265 30 31.1265C30.6225 31.1265 31.1265 30.6225 31.1265 30C31.1265 29.6895 31.0005 29.4075 30.7965 29.2035L25.125 23.5335Z" fill="white"/>
</svg>
