<svg width="48" height="48" viewBox="0 0 48 48" fill="none" xmlns="http://www.w3.org/2000/svg">
<path d="M43.5 18.384H40.68C40.383 17.5065 40.0725 16.776 39.7155 16.0725L39.762 16.173L41.769 14.187C42.294 13.737 42.624 13.074 42.624 12.333C42.624 11.724 42.4005 11.166 42.03 10.7385L42.033 10.7415L37.266 5.97447C36.8415 5.60547 36.285 5.38197 35.6745 5.38197C34.9335 5.38197 34.269 5.71347 33.8235 6.23697L33.8205 6.23997L31.8225 8.23497C31.2195 7.92597 30.4905 7.61547 29.7375 7.35597L29.6145 7.31847L29.628 4.49847C29.6325 4.43847 29.6355 4.36947 29.6355 4.29897C29.6355 3.01797 28.6455 1.96797 27.3885 1.87347H27.381H20.637C19.371 1.96797 18.3795 3.01797 18.3795 4.29897C18.3795 4.36947 18.3825 4.43847 18.3885 4.50747V4.49847V7.31697C17.511 7.61397 16.782 7.92297 16.0785 8.27847L16.179 8.23197L14.193 6.22797C13.7445 5.69997 13.08 5.36847 12.339 5.36847C11.7285 5.36847 11.172 5.59347 10.7445 5.96397L10.7475 5.96097L5.979 10.7295C5.61 11.154 5.385 11.712 5.385 12.321C5.385 13.062 5.7165 13.7265 6.24 14.172L6.243 14.175L8.2365 16.1685C7.926 16.773 7.6155 17.505 7.356 18.261L7.32 18.384L4.5 18.3705C4.44 18.366 4.371 18.363 4.3005 18.363C3.0195 18.363 1.9695 19.3545 1.875 20.6115V20.619V27.3615C1.968 28.6275 3.0195 29.619 4.3005 29.619C4.371 29.619 4.44 29.616 4.509 29.61H4.5H7.32C7.617 30.4875 7.926 31.218 8.283 31.9215L8.238 31.8225L6.2355 33.8025C5.709 34.2525 5.3775 34.9185 5.3775 35.661C5.3775 36.2715 5.601 36.8295 5.9715 37.257L5.9685 37.254L10.737 42.021C11.1105 42.39 11.6235 42.6195 12.192 42.6195C12.2025 42.6195 12.213 42.6195 12.2235 42.6195H12.222C12.9945 42.6 13.6875 42.273 14.184 41.7555L14.1855 41.754L16.1805 39.759C16.785 40.0695 17.517 40.38 18.273 40.6395L18.396 40.677L18.3825 43.494C18.378 43.554 18.375 43.623 18.375 43.692C18.375 44.973 19.3665 46.0245 20.6235 46.1175H20.631H27.375C28.6395 46.0215 29.6295 44.973 29.6295 43.692C29.6295 43.6215 29.6265 43.5525 29.6205 43.4835V43.4925V40.671C30.498 40.374 31.23 40.0635 31.935 39.7065L31.8345 39.753L33.816 41.7525C34.314 42.2685 35.0055 42.5955 35.772 42.6135H35.775H35.778C35.787 42.6135 35.7975 42.6135 35.8065 42.6135C36.3735 42.6135 36.8865 42.387 37.263 42.021L42.0285 37.2555C42.3945 36.882 42.621 36.369 42.621 35.8035C42.621 35.79 42.621 35.778 42.621 35.7645C42.603 34.995 42.2775 34.3065 41.763 33.81L41.7615 33.8085L39.765 31.8105C40.074 31.209 40.383 30.48 40.644 29.727L40.6815 29.6025L43.5 29.616C43.56 29.6205 43.629 29.6235 43.698 29.6235C44.9805 29.6235 46.0305 28.632 46.1235 27.3735V27.366V20.6235C46.029 19.3575 44.979 18.3675 43.6965 18.3675C43.626 18.3675 43.557 18.3705 43.4895 18.3765H43.4985L43.5 18.384ZM43.506 27.375L39.882 27.357C39.852 27.357 39.8265 27.372 39.798 27.3735C39.501 27.4095 39.24 27.546 39.0465 27.747C38.964 27.855 38.892 27.9765 38.835 28.107L38.8305 28.119C38.823 28.14 38.8065 28.155 38.8005 28.1775C38.4405 29.4435 37.971 30.546 37.3845 31.5735L37.4235 31.5C37.3425 31.65 37.2945 31.827 37.2945 32.016C37.2945 32.0175 37.2945 32.0205 37.2945 32.022C37.2945 32.046 37.299 32.064 37.3005 32.0895C37.3095 32.37 37.4205 32.622 37.599 32.811L37.6125 32.8455L40.173 35.409C40.3365 35.5725 40.3785 35.7315 40.437 35.673L35.784 40.3725C35.6355 40.353 35.505 40.281 35.412 40.1775L32.8665 37.608C32.8545 37.5945 32.8335 37.6005 32.8215 37.5885C32.64 37.4205 32.4015 37.314 32.1375 37.299H32.1345C32.1045 37.2945 32.0685 37.2915 32.0325 37.29C31.845 37.29 31.6665 37.338 31.5135 37.422L31.5195 37.419C30.5655 37.962 29.46 38.433 28.3005 38.7735L28.1895 38.802C28.167 38.808 28.152 38.8245 28.131 38.832C27.987 38.895 27.8625 38.97 27.7485 39.0555L27.753 39.0525C27.7005 39.1035 27.654 39.159 27.6135 39.2175L27.6105 39.2205C27.57 39.27 27.531 39.3255 27.498 39.3855L27.495 39.3915C27.4455 39.513 27.4065 39.654 27.3855 39.8025L27.384 39.813C27.3825 39.837 27.369 39.8595 27.369 39.8835V43.5015C27.369 43.7265 27.2865 43.8735 27.369 43.8765L20.754 43.911C20.676 43.8105 20.628 43.6815 20.628 43.542C20.628 43.53 20.628 43.518 20.6295 43.506L20.6475 39.8895C20.6475 39.864 20.6355 39.8415 20.6325 39.8175C20.625 39.738 20.61 39.6645 20.5875 39.594L20.589 39.6015C20.571 39.522 20.547 39.4515 20.517 39.384L20.52 39.3915C20.442 39.2625 20.3565 39.1515 20.2605 39.051C20.217 39.015 20.1675 38.982 20.1165 38.952L20.1105 38.949C20.0445 38.904 19.971 38.865 19.8915 38.835L19.884 38.832C19.863 38.8245 19.848 38.808 19.8255 38.802C18.555 38.4405 17.448 37.971 16.4175 37.386L16.494 37.425C16.3455 37.344 16.17 37.296 15.9825 37.296C15.9495 37.2945 15.9225 37.302 15.8895 37.3035C15.6195 37.3155 15.3765 37.4235 15.192 37.593C15.18 37.605 15.162 37.599 15.15 37.611L12.5925 40.1685C12.432 40.329 12.2685 40.377 12.3255 40.4355L7.6245 35.784C7.6425 35.634 7.7145 35.5035 7.8195 35.409L10.3905 32.8665L10.407 32.8275C10.5795 32.643 10.6905 32.3985 10.7025 32.1285V32.1255C10.704 32.094 10.71 32.07 10.71 32.0385C10.71 32.037 10.71 32.0355 10.71 32.034C10.71 31.845 10.662 31.6665 10.578 31.512L10.581 31.518C10.0335 30.564 9.5625 29.4615 9.2265 28.3005L9.1995 28.1925C9.1935 28.17 9.1755 28.1535 9.168 28.131C9.105 27.99 9.033 27.867 8.949 27.756L8.952 27.7605C8.8545 27.669 8.748 27.585 8.634 27.513L8.625 27.5085C8.5485 27.471 8.4615 27.441 8.3685 27.423L8.361 27.4215C8.3175 27.408 8.2635 27.3975 8.208 27.39H8.202C8.172 27.387 8.1465 27.372 8.115 27.372H4.497C4.269 27.375 4.125 27.2895 4.122 27.369L4.089 20.7555C4.1895 20.6775 4.3155 20.6295 4.455 20.6295C4.4685 20.6295 4.4805 20.6295 4.494 20.631H4.4925L8.1165 20.649C8.3445 20.643 8.5545 20.568 8.727 20.445L8.724 20.448C8.76 20.427 8.79 20.406 8.82 20.3835L8.817 20.385C8.9805 20.253 9.1035 20.076 9.1695 19.8735L9.171 19.866C9.1755 19.851 9.192 19.845 9.1965 19.8285C9.5595 18.558 10.029 17.454 10.6155 16.4235L10.5765 16.4985C10.6575 16.3485 10.7055 16.1715 10.7055 15.9825C10.7055 15.981 10.7055 15.981 10.7055 15.9795C10.707 15.951 10.701 15.93 10.6995 15.9015C10.689 15.6255 10.5795 15.3765 10.404 15.189L10.389 15.153L7.8315 12.5955C7.6695 12.4305 7.6185 12.264 7.5675 12.3285L12.2205 7.62747C12.372 7.63947 12.504 7.71447 12.5925 7.82397L12.594 7.82547L15.1395 10.395C15.1665 10.422 15.2085 10.4115 15.237 10.4355C15.4245 10.617 15.6795 10.7295 15.9615 10.7295C16.1565 10.7295 16.338 10.6755 16.494 10.5825L16.4895 10.5855C17.4435 10.0395 18.5475 9.56997 19.707 9.23247L19.815 9.20547C19.836 9.19947 19.851 9.18297 19.872 9.17697C19.9575 9.14547 20.0295 9.10647 20.0985 9.06147L20.094 9.06447C20.3385 8.92947 20.5155 8.69847 20.5755 8.42397L20.577 8.41797C20.598 8.35347 20.6145 8.27847 20.622 8.20047V8.19597C20.6235 8.17197 20.6355 8.15097 20.6355 8.12697V4.50897C20.6355 4.28247 20.7195 4.13547 20.637 4.13397L27.252 4.09947C27.33 4.19997 27.3765 4.32747 27.3765 4.46697C27.3765 4.48047 27.3765 4.49247 27.375 4.50597L27.357 8.12247C27.357 8.14647 27.369 8.16747 27.3705 8.19297C27.378 8.27547 27.393 8.35197 27.417 8.42547L27.4155 8.41797C27.522 8.76897 27.78 9.04647 28.1115 9.17697L28.119 9.17997C28.14 9.18747 28.1565 9.20397 28.1775 9.20997C29.445 9.57297 30.5475 10.0425 31.575 10.6275L31.5 10.5885C31.6575 10.6785 31.8465 10.7325 32.049 10.7325H32.0505C32.325 10.7205 32.571 10.6095 32.757 10.4355C32.7825 10.413 32.8215 10.4235 32.8455 10.3995L35.409 7.84197C35.5665 7.68297 35.7285 7.63647 35.673 7.57797L40.3725 12.231C40.3545 12.381 40.284 12.51 40.179 12.6045L37.6065 15.15L37.59 15.189C37.416 15.3735 37.305 15.6195 37.293 15.891V15.894C37.2915 15.924 37.2855 15.948 37.2855 15.978C37.2855 15.9795 37.2855 15.981 37.2855 15.9825C37.2855 16.1715 37.3335 16.35 37.4175 16.5045L37.4145 16.4985C37.962 17.4525 38.433 18.555 38.7675 19.7145L38.7945 19.821C38.799 19.839 38.8185 19.8465 38.823 19.863C38.892 20.0685 39.0135 20.2425 39.171 20.3715L39.1725 20.373C39.201 20.3955 39.234 20.418 39.267 20.4375L39.2715 20.4405C39.4395 20.5605 39.6495 20.6355 39.8745 20.6415H43.494C43.722 20.64 43.866 20.727 43.869 20.643L43.9005 27.2565C43.803 27.336 43.677 27.384 43.5405 27.384C43.5255 27.384 43.512 27.384 43.497 27.3825H43.4985L43.506 27.375ZM24 16.875C20.0655 16.875 16.875 20.0655 16.875 24C16.875 27.9345 20.0655 31.125 24 31.125C27.9345 31.125 31.125 27.9345 31.125 24C31.1205 20.067 27.933 16.8795 24 16.875ZM24 28.875C21.3075 28.875 19.125 26.6925 19.125 24C19.125 21.3075 21.3075 19.125 24 19.125C26.6925 19.125 28.875 21.3075 28.875 24C28.872 26.691 26.691 28.872 24 28.875Z" fill="white"/>
</svg>
