<svg width="32" height="32" viewBox="0 0 32 32" fill="none" xmlns="http://www.w3.org/2000/svg">
	<!-- https://www.svgrepo.com/svg/473209/gear -->
	<path d="M29 12.256H27.12C26.922 11.671 26.715 11.184 26.477 10.715L26.508 10.782L27.846 9.45799C28.196 9.15799 28.416 8.71599 28.416 8.22199C28.416 7.81599 28.267 7.44399 28.02 7.15899L28.022 7.16099L24.844 3.98299C24.561 3.73699 24.19 3.58799 23.783 3.58799C23.289 3.58799 22.846 3.80899 22.549 4.15799L22.547 4.15999L21.215 5.48999C20.813 5.28399 20.327 5.07699 19.825 4.90399L19.743 4.87899L19.752 2.99899C19.755 2.95899 19.757 2.91299 19.757 2.86599C19.757 2.01199 19.097 1.31199 18.259 1.24899H18.254H13.758C12.914 1.31199 12.253 2.01199 12.253 2.86599C12.253 2.91299 12.255 2.95899 12.259 3.00499V2.99899V4.87799C11.674 5.07599 11.188 5.28199 10.719 5.51899L10.786 5.48799L9.462 4.15199C9.163 3.79999 8.72 3.57899 8.226 3.57899C7.819 3.57899 7.448 3.72899 7.163 3.97599L7.165 3.97399L3.986 7.15299C3.74 7.43599 3.59 7.80799 3.59 8.21399C3.59 8.70799 3.811 9.15099 4.16 9.44799L4.162 9.44999L5.491 10.779C5.284 11.182 5.077 11.67 4.904 12.174L4.88 12.256L3 12.247C2.96 12.244 2.914 12.242 2.867 12.242C2.013 12.242 1.313 12.903 1.25 13.741V13.746V18.241C1.312 19.085 2.013 19.746 2.867 19.746C2.914 19.746 2.96 19.744 3.006 19.74H3H4.88C5.078 20.325 5.284 20.812 5.522 21.281L5.492 21.215L4.157 22.535C3.806 22.835 3.585 23.279 3.585 23.774C3.585 24.181 3.734 24.553 3.981 24.838L3.979 24.836L7.158 28.014C7.407 28.26 7.749 28.413 8.128 28.413C8.135 28.413 8.142 28.413 8.149 28.413H8.148C8.663 28.4 9.125 28.182 9.456 27.837L9.457 27.836L10.787 26.506C11.19 26.713 11.678 26.92 12.182 27.093L12.264 27.118L12.255 28.996C12.252 29.036 12.25 29.082 12.25 29.128C12.25 29.982 12.911 30.683 13.749 30.745H13.754H18.25C19.093 30.681 19.753 29.982 19.753 29.128C19.753 29.081 19.751 29.035 19.747 28.989V28.995V27.114C20.332 26.916 20.82 26.709 21.29 26.471L21.223 26.502L22.544 27.835C22.876 28.179 23.337 28.397 23.848 28.409H23.85H23.852C23.858 28.409 23.865 28.409 23.871 28.409C24.249 28.409 24.591 28.258 24.842 28.014L28.019 24.837C28.263 24.588 28.414 24.246 28.414 23.869C28.414 23.86 28.414 23.852 28.414 23.843C28.402 23.33 28.185 22.871 27.842 22.54L27.841 22.539L26.51 21.207C26.716 20.806 26.922 20.32 27.096 19.818L27.121 19.735L29 19.744C29.04 19.747 29.086 19.749 29.132 19.749C29.987 19.749 30.687 19.088 30.749 18.249V18.244V13.749C30.686 12.905 29.986 12.245 29.131 12.245C29.084 12.245 29.038 12.247 28.993 12.251H28.999L29 12.256ZM29.004 18.25L26.588 18.238C26.568 18.238 26.551 18.248 26.532 18.249C26.334 18.273 26.16 18.364 26.031 18.498C25.976 18.57 25.928 18.651 25.89 18.738L25.887 18.746C25.882 18.76 25.871 18.77 25.867 18.785C25.627 19.629 25.314 20.364 24.923 21.049L24.949 21C24.895 21.1 24.863 21.218 24.863 21.344C24.863 21.345 24.863 21.347 24.863 21.348C24.863 21.364 24.866 21.376 24.867 21.393C24.873 21.58 24.947 21.748 25.066 21.874L25.075 21.897L26.782 23.606C26.891 23.715 26.919 23.821 26.958 23.782L23.856 26.915C23.757 26.902 23.67 26.854 23.608 26.785L21.911 25.072C21.903 25.063 21.889 25.067 21.881 25.059C21.76 24.947 21.601 24.876 21.425 24.866H21.423C21.403 24.863 21.379 24.861 21.355 24.86C21.23 24.86 21.111 24.892 21.009 24.948L21.013 24.946C20.377 25.308 19.64 25.622 18.867 25.849L18.793 25.868C18.778 25.872 18.768 25.883 18.754 25.888C18.658 25.93 18.575 25.98 18.499 26.037L18.502 26.035C18.467 26.069 18.436 26.106 18.409 26.145L18.407 26.147C18.38 26.18 18.354 26.217 18.332 26.257L18.33 26.261C18.297 26.342 18.271 26.436 18.257 26.535L18.256 26.542C18.255 26.558 18.246 26.573 18.246 26.589V29.001C18.246 29.151 18.191 29.249 18.246 29.251L13.836 29.274C13.784 29.207 13.752 29.121 13.752 29.028C13.752 29.02 13.752 29.012 13.753 29.004L13.765 26.593C13.765 26.576 13.757 26.561 13.755 26.545C13.75 26.492 13.74 26.443 13.725 26.396L13.726 26.401C13.714 26.348 13.698 26.301 13.678 26.256L13.68 26.261C13.628 26.175 13.571 26.101 13.507 26.034C13.478 26.01 13.445 25.988 13.411 25.968L13.407 25.966C13.363 25.936 13.314 25.91 13.261 25.89L13.256 25.888C13.242 25.883 13.232 25.872 13.217 25.868C12.37 25.627 11.632 25.314 10.945 24.924L10.996 24.95C10.897 24.896 10.78 24.864 10.655 24.864C10.633 24.863 10.615 24.868 10.593 24.869C10.413 24.877 10.251 24.949 10.128 25.062C10.12 25.07 10.108 25.066 10.1 25.074L8.395 26.779C8.288 26.886 8.179 26.918 8.217 26.957L5.083 23.856C5.095 23.756 5.143 23.669 5.213 23.606L6.927 21.911L6.938 21.885C7.053 21.762 7.127 21.599 7.135 21.419V21.417C7.136 21.396 7.14 21.38 7.14 21.359C7.14 21.358 7.14 21.357 7.14 21.356C7.14 21.23 7.108 21.111 7.052 21.008L7.054 21.012C6.689 20.376 6.375 19.641 6.151 18.867L6.133 18.795C6.129 18.78 6.117 18.769 6.112 18.754C6.07 18.66 6.022 18.578 5.966 18.504L5.968 18.507C5.903 18.446 5.832 18.39 5.756 18.342L5.75 18.339C5.699 18.314 5.641 18.294 5.579 18.282L5.574 18.281C5.545 18.272 5.509 18.265 5.472 18.26H5.468C5.448 18.258 5.431 18.248 5.41 18.248H2.998C2.846 18.25 2.75 18.193 2.748 18.246L2.726 13.837C2.793 13.785 2.877 13.753 2.97 13.753C2.979 13.753 2.987 13.753 2.996 13.754H2.995L5.411 13.766C5.563 13.762 5.703 13.712 5.818 13.63L5.816 13.632C5.84 13.618 5.86 13.604 5.88 13.589L5.878 13.59C5.987 13.502 6.069 13.384 6.113 13.249L6.114 13.244C6.117 13.234 6.128 13.23 6.131 13.219C6.373 12.372 6.686 11.636 7.077 10.949L7.051 10.999C7.105 10.899 7.137 10.781 7.137 10.655C7.137 10.654 7.137 10.654 7.137 10.653C7.138 10.634 7.134 10.62 7.133 10.601C7.126 10.417 7.053 10.251 6.936 10.126L6.926 10.102L5.221 8.39699C5.113 8.28699 5.079 8.17599 5.045 8.21899L8.147 5.08499C8.248 5.09299 8.336 5.14299 8.395 5.21599L8.396 5.21699L10.093 6.92999C10.111 6.94799 10.139 6.94099 10.158 6.95699C10.283 7.07799 10.453 7.15299 10.641 7.15299C10.771 7.15299 10.892 7.11699 10.996 7.05499L10.993 7.05699C11.629 6.69299 12.365 6.37999 13.138 6.15499L13.21 6.13699C13.224 6.13299 13.234 6.12199 13.248 6.11799C13.305 6.09699 13.353 6.07099 13.399 6.04099L13.396 6.04299C13.559 5.95299 13.677 5.79899 13.717 5.61599L13.718 5.61199C13.732 5.56899 13.743 5.51899 13.748 5.46699V5.46399C13.749 5.44799 13.757 5.43399 13.757 5.41799V3.00599C13.757 2.85499 13.813 2.75699 13.758 2.75599L18.168 2.73299C18.22 2.79999 18.251 2.88499 18.251 2.97799C18.251 2.98699 18.251 2.99499 18.25 3.00399L18.238 5.41499C18.238 5.43099 18.246 5.44499 18.247 5.46199C18.252 5.51699 18.262 5.56799 18.278 5.61699L18.277 5.61199C18.348 5.84599 18.52 6.03099 18.741 6.11799L18.746 6.11999C18.76 6.12499 18.771 6.13599 18.785 6.13999C19.63 6.38199 20.365 6.69499 21.05 7.08499L21 7.05899C21.105 7.11899 21.231 7.15499 21.366 7.15499H21.367C21.55 7.14699 21.714 7.07299 21.838 6.95699C21.855 6.94199 21.881 6.94899 21.897 6.93299L23.606 5.22799C23.711 5.12199 23.819 5.09099 23.782 5.05199L26.915 8.15399C26.903 8.25399 26.856 8.33999 26.786 8.40299L25.071 10.1L25.06 10.126C24.944 10.249 24.87 10.413 24.862 10.594V10.596C24.861 10.616 24.857 10.632 24.857 10.652C24.857 10.653 24.857 10.654 24.857 10.655C24.857 10.781 24.889 10.9 24.945 11.003L24.943 10.999C25.308 11.635 25.622 12.37 25.845 13.143L25.863 13.214C25.866 13.226 25.879 13.231 25.882 13.242C25.928 13.379 26.009 13.495 26.114 13.581L26.115 13.582C26.134 13.597 26.156 13.612 26.178 13.625L26.181 13.627C26.293 13.707 26.433 13.757 26.583 13.761H28.996C29.148 13.76 29.244 13.818 29.246 13.762L29.267 18.171C29.202 18.224 29.118 18.256 29.027 18.256C29.017 18.256 29.008 18.256 28.998 18.255H28.999L29.004 18.25ZM16 11.25C13.377 11.25 11.25 13.377 11.25 16C11.25 18.623 13.377 20.75 16 20.75C18.623 20.75 20.75 18.623 20.75 16C20.747 13.378 18.622 11.253 16 11.25ZM16 19.25C14.205 19.25 12.75 17.795 12.75 16C12.75 14.205 14.205 12.75 16 12.75C17.795 12.75 19.25 14.205 19.25 16C19.248 17.794 17.794 19.248 16 19.25Z" fill="white"/>
</svg>
