<svg width="48" height="48" viewBox="0 0 48 48" fill="none" xmlns="http://www.w3.org/2000/svg">
<path d="M46.4145 12.741C45.1905 8.30547 41.7675 4.88247 37.4235 3.68097L37.3335 3.65997C36.357 3.42147 35.235 3.28497 34.08 3.28497C30.144 3.28497 26.58 4.87797 23.997 7.45347C21.66 5.19597 18.474 3.80397 14.9625 3.80397C13.8075 3.80397 12.6885 3.95397 11.6235 4.23597L11.7135 4.21497C7.05749 5.53797 3.46499 9.13047 2.16599 13.6905L2.14199 13.788C1.88549 14.76 1.73849 15.8775 1.73849 17.028C1.73849 20.91 3.41399 24.4005 6.08249 26.8155L6.09449 26.826L23.166 45.7545C23.373 45.984 23.67 46.1265 24.0015 46.1265C24.333 46.1265 24.63 45.984 24.8355 45.756L24.837 45.7545L41.8905 26.847C44.8935 24.1635 46.7745 20.2785 46.7745 15.9555C46.7745 14.817 46.644 13.7085 46.3965 12.6435L46.416 12.7425L46.4145 12.741ZM40.275 25.2765L40.2375 25.3185L24.0015 43.3215L7.72499 25.2765C5.43599 23.238 4.00049 20.283 4.00049 16.992C4.00049 16.0605 4.11599 15.156 4.33199 14.292L4.31549 14.3685C5.41949 10.4865 8.41499 7.49097 12.216 6.40797L12.297 6.38847C13.092 6.16497 14.004 6.03597 14.946 6.03447H14.9475C18.2175 6.13197 21.1365 7.55697 23.1975 9.78897L23.205 9.79647C23.412 9.99297 23.6925 10.113 24 10.113C24.3075 10.113 24.588 9.99297 24.7965 9.79647C27.057 7.18347 30.3795 5.53947 34.0845 5.53947C35.0295 5.53947 35.9505 5.64597 36.834 5.84847L36.7515 5.83197C40.41 6.84297 43.233 9.66447 44.2245 13.248L44.2425 13.323C44.4285 14.124 44.535 15.0435 44.535 15.987C44.535 19.6935 42.8895 23.0145 40.29 25.263L40.275 25.2765Z" fill="white"/>
</svg>
