<svg width="32" height="32" viewBox="0 0 32 32" fill="none" xmlns="http://www.w3.org/2000/svg">
	<!-- https://www.svgrepo.com/svg/473234/heart -->
	<path fill="currentColor" d="M30.943 8.494C30.127 5.537 27.845 3.255 24.949 2.454L24.889 2.44C24.238 2.281 23.49 2.19 22.72 2.19C20.096 2.19 17.72 3.252 15.998 4.969C14.44 3.464 12.316 2.536 9.975 2.536C9.205 2.536 8.459 2.636 7.749 2.824L7.809 2.81C4.705 3.692 2.31 6.087 1.444 9.127L1.428 9.192C1.257 9.84 1.159 10.585 1.159 11.352C1.159 13.94 2.276 16.267 4.055 17.877L4.063 17.884L15.444 30.503C15.582 30.656 15.78 30.751 16.001 30.751C16.222 30.751 16.42 30.656 16.557 30.504L16.558 30.503L27.927 17.898C29.929 16.109 31.183 13.519 31.183 10.637C31.183 9.878 31.096 9.139 30.931 8.429L30.944 8.495L30.943 8.494ZM26.85 16.851L26.825 16.879L16.001 28.881L5.15 16.851C3.624 15.492 2.667 13.522 2.667 11.328C2.667 10.707 2.744 10.104 2.888 9.528L2.877 9.579C3.613 6.991 5.61 4.994 8.144 4.272L8.198 4.259C8.728 4.11 9.336 4.024 9.964 4.023H9.965C12.145 4.088 14.091 5.038 15.465 6.526L15.47 6.531C15.608 6.662 15.795 6.742 16 6.742C16.205 6.742 16.392 6.662 16.531 6.531C18.038 4.789 20.253 3.693 22.723 3.693C23.353 3.693 23.967 3.764 24.556 3.899L24.501 3.888C26.94 4.562 28.822 6.443 29.483 8.832L29.495 8.882C29.619 9.416 29.69 10.029 29.69 10.658C29.69 13.129 28.593 15.343 26.86 16.842L26.85 16.851Z"/>
</svg>
