<svg width="32" height="32" viewBox="0 0 32 32" fill="none" xmlns="http://www.w3.org/2000/svg">
	<!-- https://www.svgrepo.com/svg/473244/home -->
	<path fill="currentColor" d="M30.488 13.431L16.488 1.43101C16.358 1.31901 16.187 1.25101 16 1.25101C15.813 1.25101 15.642 1.31901 15.511 1.43201L15.512 1.43101L1.512 13.431C1.351 13.569 1.25 13.773 1.25 14V30C1.25 30.414 1.586 30.75 2 30.75H30C30.414 30.75 30.75 30.414 30.75 30V14C30.75 13.773 30.648 13.569 30.488 13.431ZM11.75 29.25V24C11.75 21.653 13.653 19.75 16 19.75C18.347 19.75 20.25 21.653 20.25 24V29.25H11.75ZM29.25 29.25H21.75V24C21.75 20.824 19.176 18.25 16 18.25C12.824 18.25 10.25 20.824 10.25 24V29.25H2.75V14.345L16 2.98901L29.25 14.345V29.25Z"/>
</svg>
