<svg width="48" height="48" viewBox="0 0 48 48" fill="none" xmlns="http://www.w3.org/2000/svg">
<path d="M45.732 20.1465L24.732 2.14653C24.537 1.97853 24.2805 1.87653 24 1.87653C23.7195 1.87653 23.463 1.97853 23.2665 2.14803L23.268 2.14653L2.268 20.1465C2.0265 20.3535 1.875 20.6595 1.875 21V45C1.875 45.621 2.379 46.125 3 46.125H45C45.621 46.125 46.125 45.621 46.125 45V21C46.125 20.6595 45.972 20.3535 45.732 20.1465ZM17.625 43.875V36C17.625 32.4795 20.4795 29.625 24 29.625C27.5205 29.625 30.375 32.4795 30.375 36V43.875H17.625ZM43.875 43.875H32.625V36C32.625 31.236 28.764 27.375 24 27.375C19.236 27.375 15.375 31.236 15.375 36V43.875H4.125V21.5175L24 4.48353L43.875 21.5175V43.875Z" fill="white"/>
</svg>
