<svg width="32" height="32" viewBox="0 0 32 32" fill="none" xmlns="http://www.w3.org/2000/svg">
	<!-- https://www.svgrepo.com/svg/473244/home -->
	<path fill="currentColor" d="M30.238 12.18L16.238 0.18C16.108 0.068 15.937 0 15.75 0C15.563 0 15.392 0.068 15.261 0.181L15.262 0.18L1.262 12.18C1.101 12.318 1 12.522 1 12.749V28.749C1 29.163 1.336 29.499 1.75 29.499H29.75C30.164 29.499 30.5 29.163 30.5 28.749V12.749C30.5 12.522 30.398 12.318 30.238 12.18ZM11.5 27.999V22.749C11.5 20.402 13.403 18.499 15.75 18.499C18.097 18.499 20 20.402 20 22.749V27.999H11.5ZM29 27.999H21.5V22.749C21.5 19.573 18.926 16.999 15.75 16.999C12.574 16.999 10 19.573 10 22.749V27.999H2.5V13.094L15.75 1.738L29 13.094V27.999Z"/>
</svg>
