<svg width="32" height="32" viewBox="0 0 32 32" fill="none" xmlns="http://www.w3.org/2000/svg">
	<!-- https://www.svgrepo.com/svg/473274/layers -->
	<path fill="currentColor" d="M1.704 9.68901L15.704 15.689C15.791 15.727 15.893 15.75 16 15.75C16.107 15.75 16.209 15.728 16.301 15.688L16.296 15.69L30.295 9.69001C30.565 9.57301 30.75 9.30801 30.75 9.00101C30.75 8.69401 30.565 8.42901 30.3 8.31301L30.295 8.31101L16.296 2.31101C16.209 2.27301 16.107 2.25101 16 2.25101C15.893 2.25101 15.791 2.27301 15.699 2.31301L15.704 2.31101L1.704 8.31101C1.435 8.42901 1.25 8.69301 1.25 9.00001C1.25 9.30701 1.435 9.57201 1.699 9.68801L1.704 9.68901ZM16 3.81601L28.096 9.00001L16 14.184L3.904 9.00001L16 3.81601ZM30.295 16.311L26.295 14.597C26.208 14.559 26.106 14.536 25.999 14.536C25.585 14.536 25.249 14.872 25.249 15.286C25.249 15.594 25.435 15.858 25.7 15.974L25.705 15.976L28.096 17L16 22.184L3.904 17L6.295 15.976C6.565 15.859 6.751 15.594 6.751 15.286C6.751 14.872 6.415 14.536 6.001 14.536C5.894 14.536 5.792 14.558 5.7 14.599L5.705 14.597L1.705 16.311C1.435 16.429 1.25 16.693 1.25 17.001C1.25 17.309 1.435 17.572 1.699 17.688L1.704 17.69L15.704 23.69C15.791 23.728 15.893 23.751 16 23.751C16.107 23.751 16.209 23.729 16.301 23.689L16.296 23.691L30.295 17.691C30.565 17.574 30.75 17.309 30.75 17.002C30.75 16.695 30.565 16.43 30.3 16.314L30.295 16.312V16.311ZM30.295 24.311L26.295 22.596C26.208 22.558 26.106 22.535 25.999 22.535C25.585 22.535 25.249 22.871 25.249 23.285C25.249 23.593 25.435 23.857 25.7 23.973L25.705 23.975L28.096 25L16 30.184L3.903 25L6.296 23.975C6.565 23.857 6.75 23.593 6.75 23.286C6.75 22.872 6.414 22.536 6 22.536C5.893 22.536 5.791 22.558 5.699 22.599L5.704 22.597L1.704 24.312C1.435 24.43 1.25 24.694 1.25 25.001C1.25 25.308 1.435 25.573 1.699 25.689L1.704 25.691L15.704 31.691C15.791 31.729 15.893 31.752 16 31.752C16.107 31.752 16.209 31.73 16.301 31.69L16.296 31.692L30.295 25.692C30.565 25.575 30.75 25.31 30.75 25.003C30.75 24.696 30.565 24.431 30.3 24.315L30.295 24.313V24.311Z"/>
</svg>
