<svg width="48" height="48" viewBox="0 0 48 48" fill="none" xmlns="http://www.w3.org/2000/svg">
<path d="M9.125 19.5H6.125C3.848 19.503 2.003 21.348 2 23.625V26.625C2.003 28.902 3.848 30.747 6.125 30.75H9.125C11.402 30.747 13.247 28.902 13.25 26.625V23.625C13.247 21.348 11.402 19.503 9.125 19.5ZM11 26.625C10.9985 27.66 10.16 28.4985 9.125 28.5H6.125C5.09 28.4985 4.2515 27.66 4.25 26.625V23.625C4.2515 22.59 5.09 21.7515 6.125 21.75H9.125C10.16 21.7515 10.9985 22.59 11 23.625V26.625ZM45.125 24H19.625C19.004 24 18.5 24.504 18.5 25.125C18.5 25.746 19.004 26.25 19.625 26.25H45.125C45.746 26.25 46.25 25.746 46.25 25.125C46.25 24.504 45.746 24 45.125 24ZM9.125 3H6.125C3.848 3.003 2.003 4.848 2 7.125V10.125C2.003 12.402 3.848 14.247 6.125 14.25H9.125C11.402 14.247 13.247 12.402 13.25 10.125V7.125C13.247 4.848 11.402 3.003 9.125 3ZM11 10.125C10.9985 11.16 10.16 11.9985 9.125 12H6.125C5.09 11.9985 4.2515 11.16 4.25 10.125V7.125C4.2515 6.09 5.09 5.2515 6.125 5.25H9.125C10.16 5.2515 10.9985 6.09 11 7.125V10.125ZM19.625 9.75H45.125C45.746 9.75 46.25 9.246 46.25 8.625C46.25 8.004 45.746 7.5 45.125 7.5H19.625C19.004 7.5 18.5 8.004 18.5 8.625C18.5 9.246 19.004 9.75 19.625 9.75ZM9.125 36H6.125C3.848 36.003 2.003 37.848 2 40.125V43.125C2.003 45.402 3.848 47.247 6.125 47.25H9.125C11.402 47.247 13.247 45.402 13.25 43.125V40.125C13.247 37.848 11.402 36.003 9.125 36ZM11 43.125C10.9985 44.16 10.16 44.9985 9.125 45H6.125C5.09 44.9985 4.2515 44.16 4.25 43.125V40.125C4.2515 39.09 5.09 38.2515 6.125 38.25H9.125C10.16 38.2515 10.9985 39.09 11 40.125V43.125ZM45.125 40.5H19.625C19.004 40.5 18.5 41.004 18.5 41.625C18.5 42.246 19.004 42.75 19.625 42.75H45.125C45.746 42.75 46.25 42.246 46.25 41.625C46.25 41.004 45.746 40.5 45.125 40.5Z" fill="white"/>
</svg>
