<svg width="48" height="48" viewBox="0 0 48 48" fill="none" xmlns="http://www.w3.org/2000/svg">
<path d="M40.5 33.375C39.2535 33.378 38.103 33.7905 37.1775 34.4835L37.1925 34.473L32.244 29.976C33.474 28.3305 34.2135 26.2575 34.2135 24.0105C34.2135 21.5895 33.3555 19.3695 31.926 17.637L31.9395 17.6535L37.4055 12.189C38.2815 12.7755 39.3585 13.125 40.5165 13.125C43.632 13.125 46.1565 10.6005 46.1565 7.485C46.1565 4.3695 43.632 1.845 40.5165 1.845C37.401 1.845 34.8765 4.3695 34.8765 7.485C34.8765 8.6445 35.226 9.7215 35.826 10.617L35.8125 10.596L30.348 16.0605C28.6305 14.6445 26.4075 13.785 23.982 13.785C22.5765 13.785 21.24 14.073 20.025 14.595L20.091 14.5695L18.543 11.7585C19.7295 10.7265 20.475 9.216 20.475 7.53C20.475 4.44 17.97 1.9365 14.8815 1.9365C11.793 1.9365 9.28801 4.4415 9.28801 7.53C9.28801 10.62 11.793 13.1235 14.8815 13.1235C14.892 13.1235 14.904 13.1235 14.9145 13.1235C15.5115 13.1145 16.08 13.014 16.6125 12.8325L16.5735 12.8445L18.129 15.669C15.4935 17.5335 13.794 20.5665 13.788 23.9985V24C13.803 25.0455 13.9755 26.046 14.283 26.985L14.2635 26.9145L12.129 27.819C11.1075 26.3625 9.43651 25.4235 7.54501 25.4235C4.46101 25.4235 1.96201 27.9225 1.96201 31.0065C1.96201 34.0905 4.46101 36.5895 7.54501 36.5895C10.629 36.5895 13.128 34.0905 13.128 31.0065C13.128 30.6105 13.0875 30.225 13.0095 29.853L13.0155 29.889L15.144 28.986C16.8945 32.1255 20.1945 34.2135 23.982 34.2135C26.577 34.2135 28.944 33.2325 30.732 31.6215L30.723 31.629L35.6865 36.1395C35.184 36.9555 34.884 37.941 34.878 38.9985C34.878 42.105 37.3965 44.625 40.503 44.625C43.6095 44.625 46.128 42.1065 46.128 39C46.128 35.8935 43.6095 33.375 40.503 33.375H40.5ZM11.535 7.5C11.535 5.6355 13.0455 4.125 14.91 4.125C16.7745 4.125 18.285 5.6355 18.285 7.5C18.285 9.3645 16.7745 10.875 14.91 10.875C13.047 10.872 11.538 9.363 11.535 7.5ZM7.50001 34.38C5.63701 34.3785 4.12801 32.8695 4.12801 31.0065C4.12801 29.1435 5.63851 27.633 7.50151 27.633C9.36451 27.633 10.8735 29.142 10.875 31.005C10.872 32.868 9.36301 34.377 7.50001 34.38ZM40.5 4.125C42.3645 4.125 43.875 5.6355 43.875 7.5C43.875 9.3645 42.3645 10.875 40.5 10.875C38.6355 10.875 37.125 9.3645 37.125 7.5C37.128 5.637 38.637 4.128 40.5 4.125ZM16.035 24C16.035 24 16.035 24 16.035 23.9985C16.035 19.6005 19.6005 16.035 23.9985 16.035C28.3965 16.035 31.962 19.6005 31.962 23.9985C31.962 28.3965 28.3965 31.962 23.9985 31.962C19.602 31.9575 16.041 28.395 16.035 24ZM40.5 42.375C38.6355 42.375 37.125 40.8645 37.125 39C37.125 37.1355 38.6355 35.625 40.5 35.625C42.3645 35.625 43.875 37.1355 43.875 39C43.872 40.863 42.363 42.372 40.5 42.375Z" fill="white"/>
</svg>
