<svg width="32" height="32" viewBox="0 0 32 32" fill="none" xmlns="http://www.w3.org/2000/svg">
	<!-- https://www.svgrepo.com/svg/473315/network -->
	<path fill="currentColor" d="M26.692 23.02C25.861 23.022 25.094 23.297 24.477 23.759L24.487 23.752L21.188 20.754C22.008 19.657 22.501 18.275 22.501 16.777C22.501 15.163 21.929 13.683 20.976 12.528L20.985 12.539L24.629 8.896C25.213 9.287 25.931 9.52 26.703 9.52C28.78 9.52 30.463 7.837 30.463 5.76C30.463 3.683 28.78 2 26.703 2C24.626 2 22.943 3.683 22.943 5.76C22.943 6.533 23.176 7.251 23.576 7.848L23.567 7.834L19.924 11.477C18.779 10.533 17.297 9.96 15.68 9.96C14.743 9.96 13.852 10.152 13.042 10.5L13.086 10.483L12.054 8.609C12.845 7.921 13.342 6.914 13.342 5.79C13.342 3.73 11.672 2.061 9.613 2.061C7.554 2.061 5.884 3.731 5.884 5.79C5.884 7.85 7.554 9.519 9.613 9.519C9.62 9.519 9.628 9.519 9.635 9.519C10.033 9.513 10.412 9.446 10.767 9.325L10.741 9.333L11.778 11.216C10.021 12.459 8.888 14.481 8.884 16.769V16.77C8.894 17.467 9.009 18.134 9.214 18.76L9.201 18.713L7.778 19.316C7.097 18.345 5.983 17.719 4.722 17.719C2.666 17.719 1 19.385 1 21.441C1 23.497 2.666 25.163 4.722 25.163C6.778 25.163 8.444 23.497 8.444 21.441C8.444 21.177 8.417 20.92 8.365 20.672L8.369 20.696L9.788 20.094C10.955 22.187 13.155 23.579 15.68 23.579C17.41 23.579 18.988 22.925 20.18 21.851L20.174 21.856L23.483 24.863C23.148 25.407 22.948 26.064 22.944 26.769C22.944 28.84 24.623 30.52 26.694 30.52C28.765 30.52 30.444 28.841 30.444 26.77C30.444 24.699 28.765 23.02 26.694 23.02H26.692ZM7.382 5.77C7.382 4.527 8.389 3.52 9.632 3.52C10.875 3.52 11.882 4.527 11.882 5.77C11.882 7.013 10.875 8.02 9.632 8.02C8.39 8.018 7.384 7.012 7.382 5.77ZM4.692 23.69C3.45 23.689 2.444 22.683 2.444 21.441C2.444 20.199 3.451 19.192 4.693 19.192C5.935 19.192 6.941 20.198 6.942 21.44C6.94 22.682 5.934 23.688 4.692 23.69ZM26.692 3.52C27.935 3.52 28.942 4.527 28.942 5.77C28.942 7.013 27.935 8.02 26.692 8.02C25.449 8.02 24.442 7.013 24.442 5.77C24.444 4.528 25.45 3.522 26.692 3.52ZM10.382 16.77C10.382 16.77 10.382 16.77 10.382 16.769C10.382 13.837 12.759 11.46 15.691 11.46C18.623 11.46 21 13.837 21 16.769C21 19.701 18.623 22.078 15.691 22.078C12.76 22.075 10.386 19.7 10.382 16.77ZM26.692 29.02C25.449 29.02 24.442 28.013 24.442 26.77C24.442 25.527 25.449 24.52 26.692 24.52C27.935 24.52 28.942 25.527 28.942 26.77C28.94 28.012 27.934 29.018 26.692 29.02Z"/>
</svg>
