<svg width="32" height="32" viewBox="0 0 32 32" fill="none" xmlns="http://www.w3.org/2000/svg">
	<!-- https://www.svgrepo.com/svg/473377/shapes -->
	<path fill="currentColor" d="M9.072 14.75H22.927C23.341 14.75 23.678 14.414 23.678 14C23.678 13.862 23.641 13.733 23.576 13.621L23.578 13.625L16.649 1.625C16.507 1.414 16.27 1.276 16 1.276C15.73 1.276 15.492 1.413 15.352 1.622L15.35 1.625L8.422 13.625C8.359 13.733 8.322 13.862 8.322 14C8.322 14.414 8.658 14.75 9.072 14.75ZM16 3.5L21.629 13.25H10.371L16 3.5ZM7.838 17.25C7.789 17.249 7.731 17.248 7.674 17.248C3.945 17.248 0.922001 20.271 0.922001 24C0.922001 27.729 3.945 30.752 7.674 30.752C7.732 30.752 7.789 30.751 7.847 30.75H7.839C7.888 30.751 7.946 30.752 8.003 30.752C11.732 30.752 14.755 27.729 14.755 24C14.755 20.271 11.732 17.248 8.003 17.248C7.945 17.248 7.888 17.249 7.83 17.25H7.838ZM7.838 29.25C7.79 29.252 7.735 29.252 7.679 29.252C4.778 29.252 2.427 26.9 2.427 24C2.427 21.1 4.779 18.748 7.679 18.748C7.735 18.748 7.791 18.749 7.847 18.751H7.839C7.887 18.749 7.942 18.749 7.998 18.749C10.899 18.749 13.25 21.101 13.25 24.001C13.25 26.901 10.898 29.253 7.998 29.253C7.942 29.253 7.886 29.252 7.83 29.25H7.838ZM28 17.25H20C18.482 17.252 17.252 18.482 17.25 20V28C17.252 29.518 18.482 30.748 20 30.75H28C29.518 30.748 30.748 29.518 30.75 28V20C30.748 18.482 29.518 17.252 28 17.25ZM29.25 28C29.249 28.69 28.69 29.249 28 29.25H20C19.31 29.249 18.751 28.69 18.75 28V20C18.751 19.31 19.31 18.751 20 18.75H28C28.69 18.751 29.249 19.31 29.25 20V28Z"/>
</svg>
