<svg width="32" height="32" viewBox="0 0 32 32" fill="none" xmlns="http://www.w3.org/2000/svg">
  <!-- https://www.svgrepo.com/svg/472927/apps -->
  <path d="M12 1.25H4C2.482 1.252 1.252 2.482 1.25 4V12C1.252 13.518 2.482 14.748 4 14.75H12C13.518 14.748 14.748 13.518 14.75 12V4C14.748 2.482 13.518 1.252 12 1.25ZM13.25 12C13.249 12.69 12.69 13.249 12 13.25H4C3.31 13.249 2.751 12.69 2.75 12V4C2.751 3.31 3.31 2.751 4 2.75H12C12.69 2.751 13.249 3.31 13.25 4V12ZM12 17.25H4C2.482 17.252 1.252 18.482 1.25 20V28C1.252 29.518 2.482 30.748 4 30.75H12C13.518 30.748 14.748 29.518 14.75 28V20C14.748 18.482 13.518 17.252 12 17.25ZM13.25 28C13.249 28.69 12.69 29.249 12 29.25H4C3.31 29.249 2.751 28.69 2.75 28V20C2.751 19.31 3.31 18.751 4 18.75H12C12.69 18.751 13.249 19.31 13.25 20V28ZM28 1.25H20C18.482 1.252 17.252 2.482 17.25 4V12C17.252 13.518 18.482 14.748 20 14.75H28C29.518 14.748 30.748 13.518 30.75 12V4C30.748 2.482 29.518 1.252 28 1.25ZM29.25 12C29.249 12.69 28.69 13.249 28 13.25H20C19.31 13.249 18.751 12.69 18.75 12V4C18.751 3.31 19.31 2.751 20 2.75H28C28.69 2.751 29.249 3.31 29.25 4V12ZM28 17.25H20C18.482 17.252 17.252 18.482 17.25 20V28C17.252 29.518 18.482 30.748 20 30.75H28C29.518 30.748 30.748 29.518 30.75 28V20C30.748 18.482 29.518 17.252 28 17.25ZM29.25 28C29.249 28.69 28.69 29.249 28 29.25H20C19.31 29.249 18.751 28.69 18.75 28V20C18.751 19.31 19.31 18.751 20 18.75H28C28.69 18.751 29.249 19.31 29.25 20V28Z" fill="white"/>
</svg>
