<svg width="48" height="48" viewBox="0 0 48 48" fill="none" xmlns="http://www.w3.org/2000/svg">
<path d="M18 1.875H6C3.723 1.878 1.878 3.723 1.875 6V18C1.878 20.277 3.723 22.122 6 22.125H18C20.277 22.122 22.122 20.277 22.125 18V6C22.122 3.723 20.277 1.878 18 1.875ZM19.875 18C19.8735 19.035 19.035 19.8735 18 19.875H6C4.965 19.8735 4.1265 19.035 4.125 18V6C4.1265 4.965 4.965 4.1265 6 4.125H18C19.035 4.1265 19.8735 4.965 19.875 6V18ZM18 25.875H6C3.723 25.878 1.878 27.723 1.875 30V42C1.878 44.277 3.723 46.122 6 46.125H18C20.277 46.122 22.122 44.277 22.125 42V30C22.122 27.723 20.277 25.878 18 25.875ZM19.875 42C19.8735 43.035 19.035 43.8735 18 43.875H6C4.965 43.8735 4.1265 43.035 4.125 42V30C4.1265 28.965 4.965 28.1265 6 28.125H18C19.035 28.1265 19.8735 28.965 19.875 30V42ZM42 1.875H30C27.723 1.878 25.878 3.723 25.875 6V18C25.878 20.277 27.723 22.122 30 22.125H42C44.277 22.122 46.122 20.277 46.125 18V6C46.122 3.723 44.277 1.878 42 1.875ZM43.875 18C43.8735 19.035 43.035 19.8735 42 19.875H30C28.965 19.8735 28.1265 19.035 28.125 18V6C28.1265 4.965 28.965 4.1265 30 4.125H42C43.035 4.1265 43.8735 4.965 43.875 6V18ZM42 25.875H30C27.723 25.878 25.878 27.723 25.875 30V42C25.878 44.277 27.723 46.122 30 46.125H42C44.277 46.122 46.122 44.277 46.125 42V30C46.122 27.723 44.277 25.878 42 25.875ZM43.875 42C43.8735 43.035 43.035 43.8735 42 43.875H30C28.965 43.8735 28.1265 43.035 28.125 42V30C28.1265 28.965 28.965 28.1265 30 28.125H42C43.035 28.1265 43.8735 28.965 43.875 30V42Z" fill="white"/>
</svg>
