<svg width="48" height="48" viewBox="0 0 48 48" fill="none" xmlns="http://www.w3.org/2000/svg">
<path d="M45.7845 18.5685C45.612 18.2775 45.2985 18.0855 44.94 18.0855C44.9025 18.0855 44.8665 18.087 44.8305 18.0915H44.835C44.5035 18.099 44.112 18.1035 43.7205 18.1035C38.4255 18.1035 33.3255 17.265 28.548 15.714L28.8945 15.8115C29.6325 12.6705 30.1935 8.93701 30.4605 5.12101L30.474 4.89151C30.4755 4.86751 30.477 4.83901 30.477 4.81201C30.477 4.19101 29.973 3.68701 29.352 3.68701C29.223 3.68701 29.0985 3.70801 28.983 3.74851L28.9905 3.74551C24.666 5.23051 19.6815 6.08851 14.4975 6.08851C10.5525 6.08851 6.72449 5.59201 3.07049 4.65751L3.38849 4.72651C3.31199 4.70851 3.22499 4.69801 3.13649 4.69801C2.84099 4.69801 2.57099 4.81051 2.36849 4.99501L2.36999 4.99351C2.14649 5.20051 2.00699 5.49451 2.00699 5.82151C2.00699 5.87851 2.01149 5.93551 2.01899 5.99101V5.98501C4.26449 21.1845 9.25199 30.828 15.4365 32.1135C16.563 38.718 19.2285 42.9795 23.2695 44.0625C23.8605 44.226 24.5385 44.3205 25.2375 44.3205C25.239 44.3205 25.242 44.3205 25.2435 44.3205C32.1405 44.3205 39.8835 35.1645 45.912 19.62C45.96 19.5 45.987 19.359 45.987 19.2135C45.987 18.9705 45.9105 18.7455 45.78 18.5625L45.783 18.5655L45.7845 18.5685ZM4.49849 7.27501C7.52099 7.95151 10.9935 8.33851 14.556 8.33851C19.383 8.33851 24.0435 7.62751 28.44 6.30301L28.0995 6.39151C27.798 9.69151 27.3225 12.6615 26.6655 15.561L26.754 15.096C23.205 13.7985 20.175 12.3435 17.3115 10.6365L17.565 10.776C17.4015 10.68 17.2035 10.623 16.9935 10.623C16.8195 10.623 16.653 10.662 16.506 10.7325L16.5135 10.7295C16.182 10.89 15.9435 11.1975 15.885 11.5665L15.8835 11.5725C15.828 11.9265 15.7905 12.264 15.7395 12.6135C15.6795 12.348 15.5295 12.1245 15.3255 11.97L15.3225 11.9685C15.1395 11.835 14.91 11.754 14.661 11.754C14.289 11.754 13.959 11.934 13.7535 12.213L13.752 12.216C13.251 12.906 12.507 13.7295 11.8005 13.7415H11.784C11.118 13.7415 10.4085 13.0155 9.92999 12.402C9.72299 12.132 9.39899 11.9595 9.03599 11.9595C8.41499 11.9595 7.91099 12.4635 7.91099 13.0845C7.91099 13.3515 8.00399 13.596 8.15849 13.7895L8.15699 13.788C8.94449 15.0195 10.2525 15.858 11.7645 15.99L11.7825 15.9915H11.8395C13.446 15.816 14.8005 14.8845 15.558 13.5645L15.57 13.5405C15.5895 13.5045 15.6105 13.4625 15.627 13.4175L15.63 13.41C15.2565 16.1445 15.0045 18.7545 14.895 21.1935C13.926 21.822 13.1085 22.5945 12.4515 23.49L12.4335 23.5155C12.291 23.7015 12.2055 23.9385 12.2055 24.1935C12.2055 24.8145 12.7095 25.3185 13.3305 25.3185C13.6965 25.3185 14.0205 25.1445 14.226 24.8745L14.2275 24.8715C14.4315 24.6015 14.6265 24.4185 14.826 24.195C14.826 24.234 14.826 24.2805 14.826 24.3285C14.826 26.211 14.9265 28.068 15.1215 29.898L15.102 29.67C11.4075 28.1745 6.87899 21.69 4.49999 7.27201L4.49849 7.27501ZM23.853 41.892C19.032 40.6005 15.4005 31.3395 17.868 13.5405C25.1565 17.73 33.873 20.244 43.1685 20.3565H43.2015C36.4425 36.9855 28.683 43.176 23.853 41.892ZM21.0105 24.174C21.699 23.6145 22.689 22.986 23.4405 23.172C24.2385 23.3685 24.858 24.462 25.2375 25.347C25.4145 25.7505 25.8105 26.028 26.271 26.028C26.892 26.028 27.396 25.524 27.396 24.903C27.396 24.7425 27.363 24.5895 27.3015 24.4515L27.3045 24.459C26.8065 22.8255 25.581 21.5505 24.0135 20.997L23.976 20.985C23.745 20.9475 23.4795 20.9265 23.2095 20.9265C21.795 20.9265 20.5155 21.501 19.59 22.428C19.335 22.6365 19.173 22.95 19.173 23.301C19.173 23.922 19.677 24.426 20.298 24.426C20.5695 24.426 20.8185 24.33 21.012 24.1695L21.0105 24.171V24.174ZM30.9675 26.8425C31.653 26.2845 32.667 25.6515 33.393 25.8405C34.1925 26.037 34.8135 27.132 35.1915 28.014C35.367 28.419 35.7645 28.698 36.2265 28.698C36.8475 28.698 37.3515 28.194 37.3515 27.573C37.3515 27.4125 37.3185 27.2595 37.257 27.1215L37.26 27.129C36.762 25.494 35.5335 24.219 33.966 23.6655L33.9285 23.6535C33.6945 23.616 33.426 23.5935 33.1515 23.5935C31.74 23.5935 30.4635 24.168 29.544 25.098C29.289 25.3065 29.1285 25.62 29.1285 25.971C29.1285 26.592 29.6325 27.096 30.2535 27.096C30.525 27.096 30.7755 27 30.9705 26.838L30.969 26.8395L30.9675 26.8425ZM30.0405 33.0855C29.232 33.99 28.062 34.557 26.7585 34.557C26.6745 34.557 26.5905 34.554 26.508 34.5495H26.52C25.4925 34.3185 24.534 33.225 23.667 31.3035C23.4855 30.9105 23.0955 30.642 22.641 30.642C22.02 30.642 21.516 31.146 21.516 31.767C21.516 31.935 21.552 32.094 21.618 32.2365L21.615 32.229C22.8045 34.866 24.246 36.342 26.0235 36.744C26.298 36.8085 26.6145 36.846 26.94 36.846C26.946 36.846 26.952 36.846 26.958 36.846C28.737 36.7125 30.315 35.9565 31.5 34.8L31.4985 34.8015C31.7415 34.593 31.896 34.287 31.896 33.9435C31.896 33.321 31.392 32.817 30.7695 32.817C30.4905 32.817 30.2355 32.919 30.039 33.087L30.0405 33.0855Z" fill="white"/>
</svg>
