<svg width="32" height="32" viewBox="0 0 32 32" fill="none" xmlns="http://www.w3.org/2000/svg">
	<!-- https://www.svgrepo.com/svg/473431/theater -->
	<path fill="currentColor" d="M30.523 12.379C30.408 12.185 30.199 12.057 29.96 12.057C29.935 12.057 29.911 12.058 29.887 12.061H29.89C29.669 12.066 29.408 12.069 29.147 12.069C25.617 12.069 22.217 11.51 19.032 10.476L19.263 10.541C19.755 8.44701 20.129 5.95801 20.307 3.41401L20.316 3.26101C20.317 3.24501 20.318 3.22601 20.318 3.20801C20.318 2.79401 19.982 2.45801 19.568 2.45801C19.482 2.45801 19.399 2.47201 19.322 2.49901L19.327 2.49701C16.444 3.48701 13.121 4.05901 9.665 4.05901C7.035 4.05901 4.483 3.72801 2.047 3.10501L2.259 3.15101C2.208 3.13901 2.15 3.13201 2.091 3.13201C1.894 3.13201 1.714 3.20701 1.579 3.33001L1.58 3.32901C1.431 3.46701 1.338 3.66301 1.338 3.88101C1.338 3.91901 1.341 3.95701 1.346 3.99401V3.99001C2.843 14.123 6.168 20.552 10.291 21.409C11.042 25.812 12.819 28.653 15.513 29.375C15.907 29.484 16.359 29.547 16.825 29.547C16.826 29.547 16.828 29.547 16.829 29.547C21.427 29.547 26.589 23.443 30.608 13.08C30.64 13 30.658 12.906 30.658 12.809C30.658 12.647 30.607 12.497 30.52 12.375L30.522 12.377L30.523 12.379ZM2.999 4.85001C5.014 5.30101 7.329 5.55901 9.704 5.55901C12.922 5.55901 16.029 5.08501 18.96 4.20201L18.733 4.26101C18.532 6.46101 18.215 8.44101 17.777 10.374L17.836 10.064C15.47 9.19901 13.45 8.22901 11.541 7.09101L11.71 7.18401C11.601 7.12001 11.469 7.08201 11.329 7.08201C11.213 7.08201 11.102 7.10801 11.004 7.15501L11.009 7.15301C10.788 7.26001 10.629 7.46501 10.59 7.71101L10.589 7.71501C10.552 7.95101 10.527 8.17601 10.493 8.40901C10.453 8.23201 10.353 8.08301 10.217 7.98001L10.215 7.97901C10.093 7.89001 9.94 7.83601 9.774 7.83601C9.526 7.83601 9.306 7.95601 9.169 8.14201L9.168 8.14401C8.834 8.60401 8.338 9.15301 7.867 9.16101H7.856C7.412 9.16101 6.939 8.67701 6.62 8.26801C6.482 8.08801 6.266 7.97301 6.024 7.97301C5.61 7.97301 5.274 8.30901 5.274 8.72301C5.274 8.90101 5.336 9.06401 5.439 9.19301L5.438 9.19201C5.963 10.013 6.835 10.572 7.843 10.66L7.855 10.661H7.893C8.964 10.544 9.867 9.92301 10.372 9.04301L10.38 9.02701C10.393 9.00301 10.407 8.97501 10.418 8.94501L10.42 8.94001C10.171 10.763 10.003 12.503 9.93 14.129C9.284 14.548 8.739 15.063 8.301 15.66L8.289 15.677C8.194 15.801 8.137 15.959 8.137 16.129C8.137 16.543 8.473 16.879 8.887 16.879C9.131 16.879 9.347 16.763 9.484 16.583L9.485 16.581C9.621 16.401 9.751 16.279 9.884 16.13C9.884 16.156 9.884 16.187 9.884 16.219C9.884 17.474 9.951 18.712 10.081 19.932L10.068 19.78C7.605 18.783 4.586 14.46 3 4.84801L2.999 4.85001ZM15.902 27.928C12.688 27.067 10.267 20.893 11.912 9.02701C16.771 11.82 22.582 13.496 28.779 13.571H28.801C24.295 24.657 19.122 28.784 15.902 27.928ZM14.007 16.116C14.466 15.743 15.126 15.324 15.627 15.448C16.159 15.579 16.572 16.308 16.825 16.898C16.943 17.167 17.207 17.352 17.514 17.352C17.928 17.352 18.264 17.016 18.264 16.602C18.264 16.495 18.242 16.393 18.201 16.301L18.203 16.306C17.871 15.217 17.054 14.367 16.009 13.998L15.984 13.99C15.83 13.965 15.653 13.951 15.473 13.951C14.53 13.951 13.677 14.334 13.06 14.952C12.89 15.091 12.782 15.3 12.782 15.534C12.782 15.948 13.118 16.284 13.532 16.284C13.713 16.284 13.879 16.22 14.008 16.113L14.007 16.114V16.116ZM20.645 17.895C21.102 17.523 21.778 17.101 22.262 17.227C22.795 17.358 23.209 18.088 23.461 18.676C23.578 18.946 23.843 19.132 24.151 19.132C24.565 19.132 24.901 18.796 24.901 18.382C24.901 18.275 24.879 18.173 24.838 18.081L24.84 18.086C24.508 16.996 23.689 16.146 22.644 15.777L22.619 15.769C22.463 15.744 22.284 15.729 22.101 15.729C21.16 15.729 20.309 16.112 19.696 16.732C19.526 16.871 19.419 17.08 19.419 17.314C19.419 17.728 19.755 18.064 20.169 18.064C20.35 18.064 20.517 18 20.647 17.892L20.646 17.893L20.645 17.895ZM20.027 22.057C19.488 22.66 18.708 23.038 17.839 23.038C17.783 23.038 17.727 23.036 17.672 23.033H17.68C16.995 22.879 16.356 22.15 15.778 20.869C15.657 20.607 15.397 20.428 15.094 20.428C14.68 20.428 14.344 20.764 14.344 21.178C14.344 21.29 14.368 21.396 14.412 21.491L14.41 21.486C15.203 23.244 16.164 24.228 17.349 24.496C17.532 24.539 17.743 24.564 17.96 24.564C17.964 24.564 17.968 24.564 17.972 24.564C19.158 24.475 20.21 23.971 21 23.2L20.999 23.201C21.161 23.062 21.264 22.858 21.264 22.629C21.264 22.214 20.928 21.878 20.513 21.878C20.327 21.878 20.157 21.946 20.026 22.058L20.027 22.057Z"/>
</svg>
