<svg width="180" height="173" viewBox="0 0 180 173" fill="none" xmlns="http://www.w3.org/2000/svg">
<path d="M91.6465 147.182C93.8048 144.468 98.3813 139.795 101.581 137.081L101.88 136.818C103.548 135.349 105.622 133.522 106.605 132.633L108.465 130.899L113.302 130.56C118.549 130.183 129.414 130.108 132.093 130.409L133.768 130.598L133.581 128.713C133.284 125.774 133.358 115.672 133.73 110.057L134.028 104.968L135.777 103.084C136.744 102.029 138.642 99.8425 140.018 98.1464C142.698 94.8297 148.279 89.3268 150.437 87.8193C151.181 87.2918 151.814 86.8019 151.814 86.6885C151.777 86.5755 150.772 85.7461 149.544 84.8039C146.977 82.8817 142.772 78.5474 137.637 72.5167L134.065 68.3706L133.73 63.2824C133.358 57.7795 133.284 47.6787 133.581 44.6634L133.768 42.7788L131.907 42.9673C128.968 43.2689 118.623 43.1935 113.302 42.8166L108.465 42.515L106.791 40.932C105.861 40.0274 103.516 37.9546 101.581 36.2961C99.6466 34.6 96.893 31.9993 95.4418 30.4163C94.0278 28.8709 92.2418 26.9112 91.5349 26.0444L90.2327 24.4612L88.7816 26.5341C87.1072 28.9085 82.4188 33.6202 76.428 38.8591L72.3349 42.4774L67.4978 42.8166C62.2886 43.1935 51.9073 43.2689 48.9304 42.9673L47.0699 42.7788L47.256 44.6634C47.5538 47.6409 47.4792 58.119 47.1072 63.5088L46.8092 68.4085L45.2467 70.1046C44.3908 71.0467 42.4931 73.2327 41.042 75.0043C38.028 78.6602 32.5211 84.1255 30.4373 85.5578C29.6559 86.0856 29.0233 86.5755 29.0233 86.6885C29.0235 86.8019 29.6562 87.2918 30.4002 87.8193C32.4837 89.2516 37.8421 94.5284 40.5583 97.8451C41.8979 99.4657 43.8329 101.727 44.8747 102.858L46.7724 104.968L47.1072 109.868C47.4792 115.183 47.5538 126.188 47.256 128.902L47.0699 130.598L48.9304 130.409C51.9073 130.108 62.2884 130.183 67.5349 130.56L72.3723 130.899L75.3488 133.575C77.0232 135.045 79.6281 137.345 81.1538 138.702C83.5351 140.812 85.135 142.508 89.4885 147.559L90.456 148.69L91.6465 147.182ZM88.7071 138.249C87.7024 137.231 85.0978 134.857 82.9024 132.973C80.6701 131.051 78.8841 129.43 78.8838 129.317C78.8838 129.204 79.7768 128.563 80.8189 127.96C83.2747 126.527 87.8514 122.155 89.191 120.007C89.7488 119.103 90.3067 118.349 90.4186 118.349C90.5302 118.349 91.0884 119.102 91.6465 120.007C92.6885 121.703 97.9719 127.017 98.5674 127.017C98.7536 127.017 99.6837 126.151 100.651 125.058L102.4 123.098L101.321 122.344C99.2375 120.874 96.3723 117.595 95.3305 115.446C93.991 112.771 93.0231 109.717 91.6836 103.913C91.0884 101.501 90.5305 99.5038 90.3815 99.5033C90.2327 99.5033 89.935 100.408 89.6746 101.463C87.8886 109.341 86.921 112.695 85.656 115.107C83.9442 118.424 80.5953 121.854 77.3581 123.625C74.9768 124.944 74.9768 124.944 70.1397 124.944C67.4978 124.944 62.6233 124.794 59.3115 124.605L53.321 124.266L53.0978 118.952C52.9487 116.012 52.7255 112.431 52.6139 110.924L52.3538 108.21L53.9537 108.775C57.4141 109.981 64.0373 110.132 67.6836 109.076C68.5024 108.813 68.5395 108.888 68.2418 110.094C68.0559 110.81 67.9072 113.487 67.9072 116.087V120.798L73.1908 121.025L73.1537 116.765C73.1163 110.848 73.8977 108.587 78.9583 100.333C80.4095 97.9957 81.4886 95.998 81.377 95.8471C81.228 95.734 79.2187 96.8647 76.8745 98.3347C68.9489 103.348 64.9303 104.705 59.6096 104.252C53.9908 103.725 51.3117 102.028 45.7674 95.5079C43.8698 93.2464 41.3023 90.3444 40.0373 89.0628L37.8047 86.7261L40.2234 84.1631C41.563 82.7686 43.8698 80.1304 45.358 78.2836C46.8463 76.4745 48.1859 75.0045 48.3349 75.0043C48.4465 75.0043 49.0792 75.9088 49.6744 76.9644C51.0885 79.4519 55.4048 84.0879 57.5258 85.4447C58.4188 86.0101 59.1628 86.5755 59.1628 86.6885C59.1625 86.8019 58.4185 87.367 57.5258 87.932C55.8887 88.9876 50.6057 94.3011 50.6048 94.9425C50.6048 95.4327 53.8792 98.3725 54.4002 98.3725C54.6606 98.3725 55.2932 97.7696 55.7768 97.0157C58.7537 92.6059 63.442 90.2314 74.158 87.8193C76.1299 87.3294 77.767 86.8395 77.7675 86.6885C77.7675 86.5379 74.9023 85.7085 71.4047 84.8418C66.8654 83.7487 64.2979 82.9193 62.4003 81.9016C58.9398 80.0549 55.5165 76.5873 53.8792 73.2327C52.6886 70.7454 52.6513 70.5569 52.6513 65.9585C52.6513 63.3578 52.8003 58.5336 52.9861 55.1791L53.321 49.1108L58.5675 48.8849C61.4699 48.734 65.0419 48.5078 66.5302 48.3948L69.2093 48.131L68.5766 49.7895C68.1304 51.0333 67.9443 52.7294 67.9443 56.7245C67.9069 59.6265 68.0185 62.5661 68.1675 63.2824C68.465 64.451 68.4279 64.5262 67.6094 64.2624C67.1623 64.1118 64.4835 63.8856 61.6931 63.8101L56.5582 63.6216V69.2379L60.7627 69.2C66.5673 69.1624 68.8002 69.9539 76.9487 75.0797C79.2558 76.5497 81.228 77.6428 81.377 77.5297C81.4884 77.3785 80.4092 75.3811 78.9954 73.0444C77.5443 70.7078 75.9815 68.0314 75.535 67.0892C72.521 61.0588 72.1861 54.7647 74.6048 49.4503C75.7956 46.8496 76.5767 45.9824 82.7908 40.5173C85.4698 38.1807 88.2231 35.6555 88.8929 34.9016C89.5998 34.148 90.3067 33.545 90.4186 33.5448C90.5673 33.5448 91.0512 33.997 91.5723 34.5248C92.0562 35.0902 94.5491 37.3892 97.1163 39.6506C99.6829 41.9491 101.804 43.9084 101.842 44.0602C101.879 44.1732 100.986 44.8519 99.8325 45.568C97.2279 47.1889 92.986 51.184 91.6465 53.3699C91.0884 54.2745 90.5302 55.0284 90.4186 55.0284C90.3067 55.0281 89.7488 54.2742 89.191 53.3699C88.1489 51.6739 82.8658 46.3603 82.27 46.3595C82.0839 46.3595 81.1538 47.2265 80.1862 48.3196L78.4373 50.2791L79.5165 51.033C81.6 52.503 84.3536 55.7444 85.656 58.3075C87.0326 60.9081 87.8883 63.6971 89.3023 70.18C89.7859 72.2153 90.2327 73.8735 90.3815 73.8735C90.5305 73.873 91.0884 71.8756 91.6836 69.4261C93.0977 63.4333 94.0281 60.5313 95.4047 57.8552C97.0049 54.7268 100.502 51.2968 103.665 49.7137C106.158 48.47 106.307 48.4324 110.884 48.4324C113.451 48.4324 118.214 48.5833 121.526 48.7716L127.516 49.1108L127.739 54.4252C127.888 57.365 128.112 60.9457 128.223 62.4536L128.484 65.167L126.846 64.5264C125.023 63.848 115.796 63.6219 113.6 64.1869L112.372 64.5264L112.67 63.2448C112.819 62.5663 112.93 59.8905 112.93 57.2899V52.5784L107.461 52.3523L107.721 55.1791C108.242 60.7572 106.791 65.1294 101.47 73.7981C100.279 75.7582 99.3862 77.4166 99.4605 77.4921C99.5729 77.6046 101.619 76.4739 104.037 74.9667C110.102 71.2353 113.303 69.8029 116.614 69.2752C121.674 68.484 127.591 70.0291 130.568 72.8559C131.237 73.5346 133.247 75.7582 134.995 77.8311C136.781 79.9039 139.274 82.7307 140.577 84.1255L142.995 86.6507L140.205 89.666C138.679 91.2869 136.372 93.9249 135.07 95.5079C133.73 97.0909 132.577 98.3725 132.465 98.3725C132.354 98.3725 131.684 97.317 130.977 96.0732C129.489 93.4726 125.768 89.4775 123.312 87.932C122.419 87.3294 121.675 86.8019 121.674 86.6885C121.674 86.5755 122.419 86.0101 123.312 85.4447C124.986 84.3892 130.232 79.0375 130.233 78.4343C130.233 78.2457 129.377 77.3036 128.298 76.3235L126.363 74.552L125.619 75.6451C124.168 77.7556 120.93 80.6579 118.809 81.7131C116.168 83.07 113.154 84.0503 107.461 85.4072C105.042 86.0101 103.071 86.5752 103.07 86.7261C103.07 86.8392 105.042 87.4422 107.461 88.0075C114.381 89.6281 115.758 90.0804 118.512 91.5503C121.898 93.3219 125.321 96.8271 126.958 100.144C128.149 102.632 128.186 102.82 128.186 107.418C128.186 110.019 128.037 114.843 127.851 118.198L127.516 124.266L122.27 124.492C119.368 124.643 115.796 124.869 114.307 124.982L111.628 125.246L112.261 123.588C112.707 122.344 112.893 120.648 112.893 116.653C112.93 113.75 112.819 110.81 112.67 110.094C112.372 108.926 112.409 108.851 113.228 109.114C113.674 109.265 116.354 109.491 119.181 109.567L124.279 109.755V103.988L121.191 104.252C115.758 104.705 112.521 103.611 104.335 98.5611C101.768 96.9781 99.5721 95.7719 99.4976 95.8471C99.3117 96.0359 100.54 98.2219 102.884 101.915C105.116 105.458 107.089 110.019 107.535 112.808C108.428 117.896 107.2 123.512 104.447 126.791C103.702 127.734 100.837 130.41 98.1212 132.784C95.4047 135.158 92.5769 137.797 91.8326 138.626L90.4931 140.134L88.7071 138.249Z" fill="#f7d5ad"/>
<g opacity="0.20">
<path d="M22.7757 32.0285V29.1502H34.0652V32.0285H30.1582V42.3078H26.6827V32.0285H22.7757ZM38.9191 29.1502V42.3078H35.3925V29.1502H38.9191Z" fill="white"/>
<path d="M31.0139 136.157C30.9801 135.729 30.8216 135.395 30.538 135.155C30.259 134.915 29.8342 134.795 29.2633 134.795C28.8996 134.795 28.6016 134.84 28.3691 134.93C28.1406 135.016 27.9714 135.134 27.8616 135.284C27.7517 135.434 27.6946 135.605 27.6904 135.798C27.6819 135.956 27.7094 136.1 27.7728 136.228C27.8405 136.352 27.946 136.466 28.09 136.569C28.2338 136.667 28.4177 136.757 28.6418 136.838C28.8659 136.92 29.1321 136.993 29.441 137.057L30.5065 137.288C31.2251 137.442 31.8405 137.646 32.352 137.899C32.8638 138.151 33.2824 138.449 33.6078 138.791C33.9335 139.13 34.1724 139.511 34.3247 139.935C34.481 140.359 34.5614 140.821 34.5656 141.323C34.5614 142.188 34.3479 142.92 33.9251 143.52C33.5023 144.119 32.8976 144.576 32.1112 144.888C31.3289 145.201 30.3879 145.357 29.2886 145.357C28.1598 145.357 27.1745 145.188 26.3331 144.85C25.4959 144.512 24.8447 143.991 24.3796 143.289C23.9187 142.582 23.6861 141.678 23.6819 140.577H27.0308C27.0519 140.98 27.1513 141.318 27.3289 141.593C27.5064 141.866 27.7559 142.074 28.0772 142.216C28.4029 142.357 28.7897 142.428 29.2379 142.428C29.6143 142.428 29.9294 142.381 30.1831 142.286C30.4367 142.192 30.629 142.062 30.7602 141.894C30.8913 141.727 30.9589 141.537 30.9631 141.323C30.9589 141.121 30.8933 140.946 30.7666 140.796C30.6438 140.642 30.4409 140.505 30.1577 140.385C29.8744 140.261 29.4915 140.145 29.0096 140.038L27.7157 139.755C26.5656 139.502 25.6586 139.08 24.9948 138.489C24.3352 137.894 24.0075 137.082 24.0117 136.055C24.0075 135.219 24.2274 134.489 24.6714 133.864C25.1195 133.234 25.739 132.744 26.5297 132.392C27.3246 132.041 28.2357 131.866 29.2633 131.866C30.312 131.866 31.219 132.043 31.9842 132.399C32.7497 132.755 33.3393 133.256 33.7538 133.902C34.1724 134.545 34.3839 135.296 34.3881 136.157H31.0139ZM39.4334 132.046V145.203H35.9071V132.046H39.4334Z" fill="white"/>
<path d="M142.512 145.203V132.046H151.645V134.924H146.038V137.185H151.087V140.064H146.038V145.203H142.512ZM156.468 132.046V145.203H152.942V132.046H156.468Z" fill="white"/>
<path d="M153.21 29.1502V42.3076H150.267L145.574 35.3949H145.497V42.3076H141.971V29.1502H144.965L149.582 36.0374H149.684V29.1502H153.21ZM158.404 29.1502V42.3076H154.878V29.1502H158.404Z" fill="white"/>
<path d="M0.703056 83.1935V80.3152H11.9927V83.1935H8.08571V93.4729H4.61004V83.1935H0.703056ZM13.3199 93.4729V80.3152H22.6814V83.1935H16.8463V85.4549H22.1994V88.3332H16.8463V90.5946H22.656V93.4729H13.3199Z" fill="white"/>
<path d="M86.5225 159.62C86.4887 159.192 86.3302 158.857 86.047 158.618C85.7679 158.378 85.3429 158.258 84.7719 158.258C84.4083 158.258 84.1102 158.303 83.8778 158.393C83.6495 158.478 83.4804 158.596 83.3704 158.746C83.2605 158.896 83.2033 159.067 83.1991 159.26C83.1907 159.419 83.218 159.562 83.2817 159.691C83.3492 159.815 83.455 159.928 83.5987 160.031C83.7424 160.13 83.9263 160.219 84.1504 160.301C84.3745 160.382 84.641 160.455 84.9497 160.519L86.0152 160.751C86.734 160.905 87.3491 161.108 87.8609 161.361C88.3725 161.614 88.7911 161.911 89.1167 162.254C89.4421 162.592 89.681 162.973 89.8334 163.397C89.9897 163.821 90.07 164.284 90.0742 164.785C90.07 165.65 89.8566 166.383 89.4338 166.982C89.011 167.582 88.4062 168.038 87.6198 168.351C86.8376 168.663 85.8968 168.82 84.7973 168.82C83.6685 168.82 82.6833 168.651 81.8417 168.312C81.0045 167.974 80.3534 167.454 79.8882 166.751C79.4274 166.044 79.195 165.141 79.1905 164.04H82.5393C82.5606 164.442 82.6599 164.781 82.8377 165.055C83.0152 165.329 83.2646 165.537 83.5859 165.678C83.9115 165.819 84.2983 165.89 84.7468 165.89C85.123 165.89 85.438 165.843 85.6917 165.749C85.9454 165.655 86.1377 165.524 86.2688 165.357C86.4 165.19 86.4675 164.999 86.4717 164.785C86.4675 164.584 86.402 164.408 86.2753 164.258C86.1525 164.104 85.9496 163.967 85.6663 163.847C85.3831 163.723 85.0005 163.607 84.5182 163.5L83.2245 163.218C82.0744 162.965 81.1674 162.543 80.5035 161.952C79.8438 161.357 79.5162 160.545 79.5204 159.517C79.5162 158.682 79.7361 157.952 80.1801 157.326C80.6283 156.697 81.2478 156.206 82.0384 155.855C82.8332 155.504 83.7446 155.328 84.7719 155.328C85.8206 155.328 86.7276 155.506 87.4928 155.861C88.2583 156.217 88.8483 156.718 89.2624 157.365C89.681 158.007 89.8926 158.759 89.8967 159.62H86.5225ZM91.4157 168.666V155.508H100.777V158.386H94.9423V160.648H100.295V163.526H94.9423V165.787H100.752V168.666H91.4157Z" fill="white"/>
<path d="M159.09 93.4729V80.3152H168.224V83.1935H162.617V85.4549H167.665V88.3332H162.617V93.4729H159.09ZM169.52 93.4729V80.3152H178.882V83.1935H173.047V85.4549H178.4V88.3332H173.047V90.5946H178.857V93.4729H169.52Z" fill="white"/>
<path d="M90.2534 4.55714V17.7146H87.3106L82.6172 10.8018H82.541V17.7146H79.0147V4.55714H82.0083L86.6255 11.4442H86.7271V4.55714H90.2534ZM91.9217 17.7146V4.55714H101.283V7.43533H95.448V9.69677H100.801V12.575H95.448V14.8364H101.258V17.7146H91.9217Z" fill="white"/>
</g>
</svg>
