<svg width="264" height="264" viewBox="0 0 264 264" fill="none" xmlns="http://www.w3.org/2000/svg">
<path d="M264 132C264 204.902 204.902 264 132 264C59.0984 264 0 204.902 0 132C0 59.0984 59.0984 0 132 0C204.902 0 264 59.0984 264 132Z" fill="black"/>
<path d="M133.646 192.182C135.805 189.468 140.381 184.795 143.581 182.081L143.88 181.818C145.548 180.349 147.622 178.522 148.605 177.633L150.465 175.899L155.302 175.56C160.549 175.183 171.414 175.108 174.093 175.409L175.768 175.598L175.581 173.713C175.284 170.774 175.358 160.672 175.73 155.057L176.028 149.968L177.777 148.084C178.744 147.029 180.642 144.842 182.018 143.146C184.698 139.83 190.279 134.327 192.437 132.819C193.181 132.292 193.814 131.802 193.814 131.689C193.777 131.575 192.772 130.746 191.544 129.804C188.977 127.882 184.772 123.547 179.637 117.517L176.065 113.371L175.73 108.282C175.358 102.779 175.284 92.6787 175.581 89.6634L175.768 87.7788L173.907 87.9673C170.968 88.2689 160.623 88.1935 155.302 87.8166L150.465 87.515L148.791 85.932C147.861 85.0274 145.516 82.9546 143.581 81.2961C141.647 79.6 138.893 76.9993 137.442 75.4163C136.028 73.8709 134.242 71.9112 133.535 71.0444L132.233 69.4612L130.782 71.5341C129.107 73.9085 124.419 78.6202 118.428 83.8591L114.335 87.4774L109.498 87.8166C104.289 88.1935 93.9073 88.2689 90.9304 87.9673L89.0699 87.7788L89.256 89.6634C89.5538 92.6409 89.4792 103.119 89.1072 108.509L88.8092 113.408L87.2467 115.105C86.3908 116.047 84.4931 118.233 83.042 120.004C80.028 123.66 74.5211 129.125 72.4373 130.558C71.6559 131.086 71.0233 131.575 71.0233 131.689C71.0235 131.802 71.6562 132.292 72.4002 132.819C74.4837 134.252 79.8421 139.528 82.5583 142.845C83.8979 144.466 85.8329 146.727 86.8747 147.858L88.7724 149.968L89.1072 154.868C89.4792 160.183 89.5538 171.188 89.256 173.902L89.0699 175.598L90.9304 175.409C93.9073 175.108 104.288 175.183 109.535 175.56L114.372 175.899L117.349 178.575C119.023 180.045 121.628 182.345 123.154 183.702C125.535 185.812 127.135 187.508 131.488 192.559L132.456 193.69L133.646 192.182ZM130.707 183.249C129.702 182.231 127.098 179.857 124.902 177.973C122.67 176.051 120.884 174.43 120.884 174.317C120.884 174.204 121.777 173.563 122.819 172.96C125.275 171.527 129.851 167.155 131.191 165.007C131.749 164.103 132.307 163.349 132.419 163.349C132.53 163.349 133.088 164.102 133.646 165.007C134.689 166.703 139.972 172.017 140.567 172.017C140.754 172.017 141.684 171.151 142.651 170.058L144.4 168.098L143.321 167.344C141.237 165.874 138.372 162.595 137.331 160.446C135.991 157.771 135.023 154.717 133.684 148.913C133.088 146.501 132.531 144.504 132.381 144.503C132.233 144.503 131.935 145.408 131.675 146.463C129.889 154.341 128.921 157.695 127.656 160.107C125.944 163.424 122.595 166.854 119.358 168.625C116.977 169.944 116.977 169.944 112.14 169.944C109.498 169.944 104.623 169.794 101.312 169.605L95.321 169.266L95.0978 163.952C94.9487 161.012 94.7255 157.431 94.6139 155.924L94.3538 153.21L95.9537 153.775C99.4141 154.981 106.037 155.132 109.684 154.076C110.502 153.813 110.54 153.888 110.242 155.094C110.056 155.81 109.907 158.487 109.907 161.087V165.798L115.191 166.025L115.154 161.765C115.116 155.848 115.898 153.587 120.958 145.333C122.409 142.996 123.489 140.998 123.377 140.847C123.228 140.734 121.219 141.865 118.875 143.335C110.949 148.348 106.93 149.705 101.61 149.252C95.9908 148.725 93.3117 147.028 87.7674 140.508C85.8698 138.246 83.3023 135.344 82.0373 134.063L79.8047 131.726L82.2234 129.163C83.563 127.769 85.8698 125.13 87.358 123.284C88.8463 121.474 90.1859 120.005 90.3349 120.004C90.4465 120.004 91.0792 120.909 91.6744 121.964C93.0885 124.452 97.4048 129.088 99.5258 130.445C100.419 131.01 101.163 131.575 101.163 131.689C101.163 131.802 100.419 132.367 99.5258 132.932C97.8887 133.988 92.6057 139.301 92.6048 139.943C92.6048 140.433 95.8792 143.373 96.4002 143.373C96.6606 143.373 97.2932 142.77 97.7768 142.016C100.754 137.606 105.442 135.231 116.158 132.819C118.13 132.329 119.767 131.839 119.768 131.689C119.768 131.538 116.902 130.708 113.405 129.842C108.865 128.749 106.298 127.919 104.4 126.902C100.94 125.055 97.5165 121.587 95.8792 118.233C94.6886 115.745 94.6513 115.557 94.6513 110.959C94.6513 108.358 94.8003 103.534 94.9861 100.179L95.321 94.1108L100.568 93.8849C103.47 93.734 107.042 93.5078 108.53 93.3948L111.209 93.131L110.577 94.7895C110.13 96.0333 109.944 97.7294 109.944 101.724C109.907 104.626 110.019 107.566 110.168 108.282C110.465 109.451 110.428 109.526 109.609 109.262C109.162 109.112 106.484 108.886 103.693 108.81L98.5582 108.622V114.238L102.763 114.2C108.567 114.162 110.8 114.954 118.949 120.08C121.256 121.55 123.228 122.643 123.377 122.53C123.488 122.378 122.409 120.381 120.995 118.044C119.544 115.708 117.981 113.031 117.535 112.089C114.521 106.059 114.186 99.7647 116.605 94.4503C117.796 91.8496 118.577 90.9824 124.791 85.5173C127.47 83.1807 130.223 80.6555 130.893 79.9016C131.6 79.148 132.307 78.545 132.419 78.5448C132.567 78.5448 133.051 78.997 133.572 79.5248C134.056 80.0902 136.549 82.3892 139.116 84.6506C141.683 86.9491 143.804 88.9084 143.842 89.0602C143.879 89.1732 142.986 89.8519 141.832 90.568C139.228 92.1889 134.986 96.184 133.646 98.3699C133.088 99.2745 132.53 100.028 132.419 100.028C132.307 100.028 131.749 99.2742 131.191 98.3699C130.149 96.6739 124.866 91.3603 124.27 91.3595C124.084 91.3595 123.154 92.2265 122.186 93.3196L120.437 95.2791L121.516 96.033C123.6 97.503 126.354 100.744 127.656 103.307C129.033 105.908 129.888 108.697 131.302 115.18C131.786 117.215 132.233 118.874 132.381 118.874C132.531 118.873 133.088 116.876 133.684 114.426C135.098 108.433 136.028 105.531 137.405 102.855C139.005 99.7268 142.502 96.2968 145.665 94.7137C148.158 93.47 148.307 93.4324 152.884 93.4324C155.451 93.4324 160.214 93.5833 163.526 93.7716L169.516 94.1108L169.739 99.4252C169.888 102.365 170.112 105.946 170.223 107.454L170.484 110.167L168.846 109.526C167.023 108.848 157.796 108.622 155.6 109.187L154.372 109.526L154.67 108.245C154.819 107.566 154.93 104.891 154.93 102.29V97.5784L149.461 97.3523L149.721 100.179C150.242 105.757 148.791 110.129 143.47 118.798C142.279 120.758 141.386 122.417 141.46 122.492C141.573 122.605 143.619 121.474 146.037 119.967C152.102 116.235 155.303 114.803 158.614 114.275C163.674 113.484 169.591 115.029 172.568 117.856C173.237 118.535 175.247 120.758 176.995 122.831C178.781 124.904 181.274 127.731 182.577 129.125L184.995 131.651L182.205 134.666C180.679 136.287 178.372 138.925 177.07 140.508C175.73 142.091 174.577 143.373 174.465 143.373C174.354 143.373 173.684 142.317 172.977 141.073C171.489 138.473 167.768 134.477 165.312 132.932C164.419 132.329 163.675 131.802 163.674 131.689C163.674 131.575 164.419 131.01 165.312 130.445C166.986 129.389 172.232 124.038 172.233 123.434C172.233 123.246 171.377 122.304 170.298 121.324L168.363 119.552L167.619 120.645C166.168 122.756 162.93 125.658 160.809 126.713C158.168 128.07 155.154 129.05 149.461 130.407C147.042 131.01 145.071 131.575 145.07 131.726C145.07 131.839 147.042 132.442 149.461 133.008C156.381 134.628 157.758 135.08 160.512 136.55C163.898 138.322 167.321 141.827 168.958 145.144C170.149 147.632 170.186 147.82 170.186 152.418C170.186 155.019 170.037 159.843 169.851 163.198L169.516 169.266L164.27 169.492C161.368 169.643 157.796 169.869 156.307 169.982L153.628 170.246L154.261 168.588C154.707 167.344 154.893 165.648 154.893 161.653C154.93 158.75 154.819 155.81 154.67 155.094C154.372 153.926 154.409 153.851 155.228 154.114C155.674 154.265 158.354 154.491 161.181 154.567L166.279 154.755V148.988L163.191 149.252C157.758 149.705 154.521 148.611 146.335 143.561C143.768 141.978 141.572 140.772 141.498 140.847C141.312 141.036 142.54 143.222 144.884 146.915C147.116 150.458 149.089 155.019 149.535 157.808C150.428 162.896 149.2 168.512 146.447 171.791C145.702 172.734 142.837 175.41 140.121 177.784C137.405 180.158 134.577 182.797 133.833 183.626L132.493 185.134L130.707 183.249Z" fill="#F7D5AD"/>
<path d="M132 24C191.647 24 240 72.3532 240 132C240 191.647 191.647 240 132 240C72.3532 240 24 191.647 24 132C24 72.3532 72.3532 24 132 24ZM132 32L124.544 26.2598C100.88 27.9041 79.3556 37.3144 62.502 51.9609L61.2891 61.2891L51.9609 62.502C37.3144 79.3556 27.9041 100.88 26.2598 124.544L32 132L26.2598 139.455C27.9039 163.119 37.3144 184.643 51.9609 201.497L61.2891 202.711L62.502 212.038C79.3556 226.685 100.88 236.095 124.544 237.739L132 232L139.455 237.739C163.119 236.095 184.643 226.685 201.497 212.038L202.711 202.711L212.038 201.497C226.685 184.643 236.095 163.119 237.739 139.455L232 132L237.739 124.544C236.095 100.88 226.685 79.3556 212.038 62.502L202.711 61.2891L201.497 51.9609C184.643 37.3144 163.119 27.9039 139.455 26.2598L132 32Z" fill="#F7D5AD"/>
<path d="M83.0303 196.525C93.8732 204.767 106.856 210.337 121 212.258V213.266C106.582 211.332 93.3498 205.655 82.3164 197.239L83.0303 196.525Z" fill="white" fill-opacity="0.2"/>
<path d="M181.683 197.239C170.649 205.654 157.418 211.332 143 213.266V212.258C157.143 210.337 170.126 204.767 180.969 196.525L181.683 197.239Z" fill="white" fill-opacity="0.2"/>
<path d="M84.458 195.098C94.9193 202.992 107.406 208.345 121 210.239V211.248C107.131 209.341 94.3964 203.88 83.7441 195.812L84.458 195.098Z" fill="white" fill-opacity="0.2"/>
<path d="M180.255 195.812C169.603 203.879 156.869 209.341 143 211.248V210.239C156.594 208.345 169.08 202.992 179.541 195.098L180.255 195.812Z" fill="white" fill-opacity="0.2"/>
<path d="M51.7422 143C53.6625 157.143 59.2332 170.126 67.4746 180.969L66.7607 181.683C58.3455 170.649 52.6665 157.418 50.7334 143H51.7422Z" fill="white" fill-opacity="0.2"/>
<path d="M213.267 143C211.333 157.418 205.654 170.649 197.239 181.683L196.525 180.969C204.767 170.126 210.337 157.143 212.258 143H213.267Z" fill="white" fill-opacity="0.2"/>
<path d="M53.7598 143C55.6536 156.594 61.0079 169.08 68.9023 179.541L68.1885 180.255C60.1206 169.603 54.6582 156.869 52.751 143H53.7598Z" fill="white" fill-opacity="0.2"/>
<path d="M211.249 143C209.342 156.869 203.879 169.603 195.812 180.255L195.098 179.541C202.992 169.08 208.346 156.594 210.24 143H211.249Z" fill="white" fill-opacity="0.2"/>
<path d="M195.812 83.7441C203.88 94.3964 209.342 107.131 211.249 121H210.24C208.346 107.406 202.992 94.9194 195.098 84.458L195.812 83.7441Z" fill="white" fill-opacity="0.2"/>
<path d="M197.239 82.3164C205.655 93.3498 211.333 106.582 213.267 121H212.258C210.337 106.856 204.767 93.8732 196.525 83.0303L197.239 82.3164Z" fill="white" fill-opacity="0.2"/>
<path d="M67.4746 83.0303C59.2329 93.8732 53.6626 106.856 51.7422 121H50.7334C52.6665 106.582 58.3453 93.3498 66.7607 82.3164L67.4746 83.0303Z" fill="white" fill-opacity="0.2"/>
<path d="M68.9023 84.458C61.0076 94.9194 55.6536 107.406 53.7598 121H52.751C54.6582 107.131 60.1204 94.3964 68.1885 83.7441L68.9023 84.458Z" fill="white" fill-opacity="0.2"/>
<path d="M121 53.7598C107.406 55.6536 94.9194 61.0076 84.458 68.9023L83.7441 68.1885C94.3964 60.1204 107.131 54.6582 121 52.751V53.7598Z" fill="white" fill-opacity="0.2"/>
<path d="M143 52.751C156.869 54.6582 169.603 60.1206 180.255 68.1885L179.541 68.9023C169.08 61.0079 156.594 55.6536 143 53.7598V52.751Z" fill="white" fill-opacity="0.2"/>
<path d="M121 51.7412C106.856 53.6616 93.8733 59.2329 83.0303 67.4746L82.3164 66.7607C93.3498 58.3453 106.582 52.6665 121 50.7334V51.7412Z" fill="white" fill-opacity="0.2"/>
<path d="M143 50.7334C157.418 52.6665 170.649 58.3455 181.683 66.7607L180.969 67.4746C170.126 59.2332 157.143 53.6615 143 51.7412V50.7334Z" fill="white" fill-opacity="0.2"/>
<path d="M67.6678 78.6167L65.8679 76.8168L73.0193 69.6654L74.8193 71.4653L72.3444 73.9402L78.7726 80.3684L76.5709 82.5701L70.1427 76.1419L67.6678 78.6167Z" fill="#F7D5AD"/>
<path d="M76.0939 66.5909L84.322 74.819L82.0882 77.0529L73.86 68.8247L76.0939 66.5909Z" fill="#F7D5AD"/>
<path d="M189.099 180.76L197.327 188.988L191.542 194.774L189.742 192.974L193.293 189.422L191.879 188.008L188.681 191.206L186.881 189.406L190.079 186.208L186.865 182.994L189.099 180.76Z" fill="#F7D5AD"/>
<path d="M188.486 197.829L180.258 189.601L182.492 187.367L190.72 195.595L188.486 197.829Z" fill="#F7D5AD"/>
<path d="M74.1117 190.284C73.8652 190.574 73.7568 190.883 73.7862 191.212C73.813 191.539 74.0072 191.883 74.3688 192.245C74.5991 192.475 74.8161 192.636 75.0196 192.727C75.2178 192.818 75.3986 192.852 75.562 192.827C75.7254 192.803 75.8687 192.732 75.9919 192.615C76.0964 192.521 76.1687 192.414 76.2089 192.293C76.2437 192.173 76.2477 192.035 76.2209 191.879C76.1915 191.727 76.1312 191.554 76.0401 191.361C75.9491 191.168 75.8258 190.954 75.6705 190.718L75.1402 189.899C74.7813 189.347 74.5188 188.83 74.3527 188.348C74.1866 187.866 74.1076 187.414 74.1157 186.994C74.121 186.576 74.2081 186.186 74.3768 185.825C74.5429 185.46 74.7813 185.12 75.092 184.804C75.6357 184.266 76.229 183.943 76.8718 183.836C77.5146 183.729 78.1829 183.827 78.8766 184.129C79.5676 184.429 80.2613 184.927 80.9577 185.624C81.6729 186.339 82.1911 187.069 82.5126 187.813C82.8313 188.555 82.9183 189.293 82.7737 190.027C82.6237 190.761 82.2059 191.473 81.5202 192.165L79.3989 190.043C79.6373 189.778 79.7859 189.504 79.8448 189.22C79.9038 188.936 79.8756 188.648 79.7605 188.356C79.6426 188.061 79.4417 187.772 79.1578 187.488C78.9194 187.25 78.6904 187.08 78.4708 186.978C78.2512 186.876 78.0476 186.836 77.8601 186.857C77.6726 186.879 77.5106 186.955 77.374 187.086C77.2508 187.215 77.1825 187.366 77.1691 187.54C77.1503 187.714 77.1932 187.929 77.2976 188.183C77.3994 188.44 77.5695 188.755 77.8079 189.127L78.4507 190.124C79.0212 191.01 79.3319 191.848 79.3828 192.639C79.4283 193.429 79.1284 194.144 78.4829 194.784C77.9632 195.309 77.3673 195.626 76.695 195.736C76.0174 195.846 75.3183 195.76 74.5978 195.479C73.8746 195.195 73.1876 194.728 72.5367 194.077C71.8725 193.413 71.4091 192.727 71.1466 192.02C70.8841 191.313 70.8239 190.626 70.9658 189.959C71.1024 189.292 71.4386 188.688 71.9743 188.147L74.1117 190.284Z" fill="#F7D5AD"/>
<path d="M66.2069 187.522L74.4351 179.294L76.6689 181.528L68.4407 189.756L66.2069 187.522Z" fill="#F7D5AD"/>
<path d="M194.823 72.5078L186.595 80.736L184.731 78.8718L186.081 71.5757L186.032 71.5275L181.709 75.8505L179.476 73.6167L187.704 65.3885L189.6 67.2849L188.218 74.5166L188.282 74.5809L192.589 70.274L194.823 72.5078Z" fill="#F7D5AD"/>
<path d="M198.113 75.7983L189.885 84.0264L187.652 81.7926L195.88 73.5645L198.113 75.7983Z" fill="#F7D5AD"/>
<path d="M48.4091 142.537H45.8636L45.8636 132.423H48.4091L48.4091 135.923H57.5V139.037H48.4091L48.4091 142.537Z" fill="#F7D5AD"/>
<path d="M57.5 131.234L45.8636 131.234L45.8636 122.848H48.4091L48.4091 128.075H50.4091L50.4091 123.28H52.9545L52.9545 128.075H54.9545V122.871H57.5V131.234Z" fill="#F7D5AD"/>
<path d="M206.5 123.602H218.136V131.783H215.591V126.761H213.591V131.283H211.045V126.761H206.5V123.602Z" fill="#F7D5AD"/>
<path d="M206.5 132.945H218.136V141.332H215.591V136.104H213.591V140.9H211.045V136.104H209.045V141.309H206.5V132.945Z" fill="#F7D5AD"/>
<path d="M135.282 214C135.312 214.379 135.454 214.674 135.708 214.886C135.958 215.098 136.339 215.205 136.85 215.205C137.176 215.205 137.443 215.165 137.651 215.085C137.856 215.009 138.007 214.905 138.106 214.773C138.204 214.64 138.255 214.489 138.259 214.318C138.267 214.178 138.242 214.051 138.185 213.938C138.125 213.828 138.03 213.727 137.901 213.636C137.772 213.549 137.608 213.47 137.407 213.398C137.206 213.326 136.968 213.261 136.691 213.205L135.737 213C135.093 212.864 134.541 212.684 134.083 212.46C133.625 212.237 133.25 211.973 132.958 211.67C132.666 211.371 132.452 211.034 132.316 210.659C132.176 210.284 132.104 209.875 132.1 209.432C132.104 208.667 132.295 208.019 132.674 207.489C133.053 206.958 133.594 206.555 134.299 206.278C135 206.002 135.843 205.864 136.827 205.864C137.839 205.864 138.721 206.013 139.475 206.312C140.225 206.612 140.808 207.072 141.225 207.693C141.638 208.318 141.846 209.117 141.85 210.091H138.85C138.831 209.735 138.742 209.436 138.583 209.193C138.424 208.951 138.201 208.767 137.913 208.642C137.621 208.517 137.274 208.455 136.873 208.455C136.536 208.455 136.254 208.496 136.026 208.58C135.799 208.663 135.627 208.778 135.509 208.926C135.392 209.074 135.331 209.242 135.327 209.432C135.331 209.61 135.39 209.765 135.504 209.898C135.613 210.034 135.795 210.155 136.049 210.261C136.303 210.371 136.646 210.473 137.077 210.568L138.237 210.818C139.267 211.042 140.079 211.415 140.674 211.938C141.265 212.464 141.558 213.182 141.555 214.091C141.558 214.83 141.362 215.475 140.964 216.028C140.562 216.585 140.007 217.019 139.299 217.33C138.587 217.64 137.771 217.795 136.85 217.795C135.911 217.795 135.098 217.638 134.413 217.324C133.727 217.009 133.199 216.566 132.827 215.994C132.452 215.426 132.263 214.761 132.259 214H135.282Z" fill="#F7D5AD"/>
<path d="M130.898 206V217.636H122.512V215.091H127.739V213.091H122.944V210.545H127.739V208.545H122.535V206H130.898Z" fill="#F7D5AD"/>
<path d="M132.06 46.3636V58H129.424L125.219 51.8864H125.151V58H121.992V46.3636H124.674L128.81 52.4545H128.901V46.3636H132.06Z" fill="#F7D5AD"/>
<path d="M133.555 58V46.3636H141.941V48.9091H136.714V50.9091H141.509V53.4545H136.714V55.4545H141.918V58H133.555Z" fill="#F7D5AD"/>
</svg>
