<svg width="264" height="264" viewBox="0 0 264 264" fill="none" xmlns="http://www.w3.org/2000/svg">
<path d="M262 132C262 60.2029 203.797 1.99997 132 1.99997C60.203 1.99997 2.00002 60.2029 2.00002 132C2.00002 203.797 60.203 262 132 262C203.797 262 262 203.797 262 132ZM264 132C264 204.902 204.902 264 132 264C59.0984 264 1.52588e-05 204.902 1.52588e-05 132C1.52588e-05 59.0984 59.0984 -3.05176e-05 132 -3.05176e-05C204.902 -3.05176e-05 264 59.0984 264 132Z" fill="white" fill-opacity="0.2"/>
<path d="M259 132C259 61.8598 202.14 4.99996 132 4.99996C61.8599 4.99996 5.00001 61.8598 5.00001 132C5.00001 202.14 61.8599 259 132 259C202.14 259 259 202.14 259 132ZM260 132C260 202.692 202.692 260 132 260C61.3076 260 4.00001 202.692 4.00001 132C4.00001 61.3075 61.3076 3.99996 132 3.99996C202.692 3.99996 260 61.3075 260 132Z" fill="white" fill-opacity="0.2"/>
<path d="M242 132C242 71.2486 192.751 21.9999 132 21.9999C71.2487 21.9999 22 71.2486 22 132C22 192.751 71.2487 242 132 242C192.751 242 242 192.751 242 132ZM243 132C243 193.304 193.304 243 132 243C70.6964 243 21 193.304 21 132C21 70.6963 70.6964 20.9999 132 20.9999C193.304 20.9999 243 70.6963 243 132Z" fill="white" fill-opacity="0.2"/>
<path d="M13.2078 98.2959L21.6281 100.59L21.0053 102.876L12.585 100.582L13.2078 98.2959Z" fill="white" fill-opacity="0.2"/>
<path d="M16.528 88.0181L24.7908 90.8273L24.1543 92.6993L18.7981 94.209L18.7816 94.2574L23.1228 95.7333L22.3602 97.9765L14.0974 95.1674L14.7448 93.263L20.0685 91.7963L20.0904 91.7318L15.7653 90.2613L16.528 88.0181Z" fill="white" fill-opacity="0.2"/>
<path d="M19.0071 86.9509L17.2551 86.1927L20.2677 79.2314L22.0197 79.9896L20.9772 82.3987L27.2345 85.1067L26.3071 87.2498L20.0497 84.5419L19.0071 86.9509Z" fill="white" fill-opacity="0.2"/>
<path d="M23.1098 73.696L24.1981 71.6299L29.4916 74.4182C29.993 74.6855 30.3685 75.0455 30.6182 75.4981C30.8666 75.9469 30.9819 76.4475 30.9638 76.9999C30.9446 77.5484 30.7847 78.108 30.4841 78.6786C30.2233 79.1737 29.8995 79.5812 29.5128 79.9008C29.1235 80.2192 28.68 80.4029 28.182 80.4521C27.6816 80.5 27.1355 80.3664 26.5436 80.0514L27.6478 77.9552C27.8453 78.0496 28.0259 78.103 28.1896 78.1153C28.3546 78.1252 28.4988 78.0952 28.6223 78.0254C28.7446 77.9517 28.8461 77.8382 28.9269 77.6849C29.0089 77.5291 29.0439 77.3805 29.0316 77.2392C29.0207 77.0953 28.9632 76.9607 28.8591 76.8352C28.7525 76.7084 28.6005 76.5915 28.4033 76.4844L23.1098 73.696Z" fill="white" fill-opacity="0.2"/>
<path d="M39.5355 63.8885L32.6513 58.5245L36.5171 53.563L38.0231 54.7364L35.6134 57.8289L36.7967 58.7509L39.0072 55.9138L40.5131 57.0872L38.3026 59.9242L39.4858 60.8462L41.885 57.7671L43.3909 58.9405L39.5355 63.8885Z" fill="white" fill-opacity="0.2"/>
<path d="M43.7255 45.4807L50.171 51.3647L48.8379 52.825L43.3255 52.0626L43.291 52.1003L46.6774 55.1917L45.0799 56.9416L38.6345 51.0576L39.9906 49.5721L45.4559 50.3608L45.5019 50.3105L42.1281 47.2306L43.7255 45.4807Z" fill="white" fill-opacity="0.2"/>
<path d="M46.6805 45.256L45.3845 43.8543L50.954 38.7049L52.25 40.1067L50.3226 41.8887L54.9513 46.895L53.2366 48.4803L48.6079 43.474L46.6805 45.256Z" fill="white" fill-opacity="0.2"/>
<path d="M55.6092 34.9329L57.4351 33.4771L61.1649 38.1552C61.5169 38.6012 61.7164 39.0816 61.7634 39.5964C61.811 40.1071 61.7156 40.6119 61.4774 41.1106C61.2397 41.6054 60.8687 42.0537 60.3644 42.4558C59.9268 42.8046 59.4668 43.0479 58.9843 43.1855C58.5 43.3209 58.02 43.3113 57.5442 43.1565C57.0666 42.9995 56.6199 42.6581 56.2042 42.1321L58.0568 40.655C58.1998 40.8208 58.3438 40.9421 58.4888 41.0191C58.6359 41.0943 58.7801 41.1248 58.9212 41.1104C59.0627 41.092 59.2013 41.0287 59.3368 40.9207C59.4745 40.8109 59.5661 40.6888 59.6116 40.5545C59.6593 40.4183 59.6606 40.2719 59.6156 40.1152C59.5689 39.9563 59.4766 39.7882 59.339 39.611L55.6092 34.9329Z" fill="white" fill-opacity="0.2"/>
<path d="M72.2983 23.8549L76.6094 31.443L74.5493 32.6134L70.2382 25.0252L72.2983 23.8549Z" fill="white" fill-opacity="0.2"/>
<path d="M81.856 19.0164L85.6902 26.8563L83.9139 27.725L79.0667 24.9913L79.0208 25.0138L81.0352 29.1328L78.9068 30.1738L75.0726 22.3338L76.8795 21.4502L81.6733 24.191L81.7345 24.161L79.7276 20.0573L81.856 19.0164Z" fill="white" fill-opacity="0.2"/>
<path d="M84.6313 19.9212L83.9392 18.142L91.0083 15.3919L91.7005 17.1711L89.2541 18.1228L91.726 24.4771L89.5497 25.3237L87.0777 18.9695L84.6313 19.9212Z" fill="white" fill-opacity="0.2"/>
<path d="M95.4753 23.0918L92.9459 14.7391L96.5512 13.6474C97.1711 13.4596 97.7506 13.4177 98.2897 13.5216C98.8287 13.6255 99.2945 13.86 99.687 14.225C100.08 14.5899 100.366 15.0688 100.545 15.6615C100.726 16.2597 100.75 16.818 100.616 17.3364C100.485 17.8541 100.216 18.3036 99.8088 18.6851C99.4046 19.0657 98.8844 19.3524 98.2481 19.545L96.0947 20.1972L95.5612 18.4353L97.2578 17.9215C97.5243 17.8408 97.7373 17.7258 97.8969 17.5765C98.0584 17.4237 98.1631 17.2451 98.211 17.0406C98.2617 16.8353 98.2512 16.6144 98.1795 16.3778C98.1071 16.1386 97.9937 15.9503 97.8393 15.813C97.6868 15.6722 97.5018 15.5857 97.2843 15.5536C97.0687 15.518 96.8277 15.5405 96.5612 15.6212L95.7618 15.8633L97.7429 22.4051L95.4753 23.0918Z" fill="white" fill-opacity="0.2"/>
<path d="M116.269 18.206L115.292 9.53351L121.542 8.82963L121.756 10.7267L117.86 11.1655L118.028 12.656L121.602 12.2535L121.816 14.1506L118.242 14.5531L118.41 16.0437L122.288 15.6069L122.502 17.504L116.269 18.206Z" fill="white" fill-opacity="0.2"/>
<path d="M132.445 8.35033L132.733 17.0728L130.757 17.1381L127.454 12.6594L127.402 12.6611L127.554 17.2439L125.186 17.3221L124.898 8.59954L126.908 8.53316L130.159 12.9965L130.227 12.9942L130.077 8.42852L132.445 8.35033Z" fill="white" fill-opacity="0.2"/>
<path d="M134.577 10.3217L134.673 8.41501L142.249 8.79897L142.152 10.7056L139.53 10.5727L139.185 17.3822L136.853 17.264L137.198 10.4545L134.577 10.3217Z" fill="white" fill-opacity="0.2"/>
<path d="M143.204 17.6584L144.345 9.006L148.08 9.49845C148.722 9.58312 149.267 9.78396 149.715 10.1009C150.163 10.4179 150.491 10.8236 150.698 11.318C150.905 11.8124 150.968 12.3666 150.887 12.9806C150.806 13.6002 150.597 14.1186 150.261 14.5356C149.928 14.9531 149.497 15.2516 148.969 15.4313C148.444 15.6113 147.852 15.6579 147.193 15.571L144.962 15.2769L145.203 13.4518L146.96 13.6835C147.237 13.7199 147.478 13.703 147.685 13.6329C147.895 13.5603 148.064 13.4408 148.192 13.2742C148.323 13.1081 148.405 12.9025 148.437 12.6575C148.47 12.4096 148.444 12.1913 148.36 12.0026C148.279 11.8114 148.146 11.6563 147.961 11.5374C147.78 11.416 147.551 11.3371 147.275 11.3007L146.447 11.1915L145.553 17.9681L143.204 17.6584Z" fill="white" fill-opacity="0.2"/>
<path d="M169.314 14.214L166.793 22.5692L164.525 21.8848L167.046 13.5296L169.314 14.214Z" fill="white" fill-opacity="0.2"/>
<path d="M179.37 17.7918L176.34 25.9759L174.485 25.2892L173.121 19.8942L173.073 19.8765L171.48 24.1763L169.259 23.3535L172.289 15.1694L174.176 15.8679L175.498 21.2291L175.562 21.2528L177.149 16.969L179.37 17.7918Z" fill="white" fill-opacity="0.2"/>
<path d="M178.013 26.7533L181.693 18.8397L187.257 21.4268L186.452 23.158L183.036 21.5697L182.404 22.9299L185.48 24.36L184.675 26.0911L181.599 24.661L180.162 27.7523L178.013 26.7533Z" fill="white" fill-opacity="0.2"/>
<path d="M192.608 24.3107L194.653 25.4381L191.765 30.6777C191.488 31.1739 191.121 31.5425 190.663 31.7835C190.21 32.0234 189.707 32.1291 189.155 32.1005C188.607 32.0709 188.051 31.9004 187.486 31.589C186.996 31.3188 186.595 30.9874 186.283 30.5946C185.972 30.1994 185.796 29.7524 185.757 29.2536C185.718 28.7524 185.862 28.2089 186.188 27.6231L188.263 28.767C188.165 28.9626 188.108 29.1422 188.093 29.3056C188.08 29.4704 188.107 29.6151 188.175 29.7399C188.246 29.8636 188.357 29.9673 188.509 30.0509C188.663 30.1359 188.811 30.1737 188.953 30.1641C189.097 30.1559 189.233 30.101 189.36 29.9993C189.489 29.8951 189.609 29.7454 189.719 29.5503L192.608 24.3107Z" fill="white" fill-opacity="0.2"/>
<path d="M202.003 40.9193L207.495 34.1362L212.383 38.0938L211.182 39.5776L208.135 37.1108L207.191 38.2766L209.987 40.5397L208.785 42.0235L205.99 39.7604L205.046 40.9263L208.08 43.3824L206.879 44.8662L202.003 40.9193Z" fill="white" fill-opacity="0.2"/>
<path d="M220.391 45.5626L214.365 51.8761L212.935 50.511L213.819 45.0168L213.782 44.9815L210.617 48.2985L208.903 46.6627L214.928 40.3492L216.383 41.7379L215.473 47.1844L215.523 47.2315L218.677 43.9268L220.391 45.5626Z" fill="white" fill-opacity="0.2"/>
<path d="M215.572 53.217L222.066 47.3869L226.165 51.9531L224.745 53.2285L222.228 50.4253L221.112 51.4273L223.378 53.9515L221.957 55.2268L219.691 52.7027L217.155 54.9801L215.572 53.217Z" fill="white" fill-opacity="0.2"/>
<path d="M229.942 56.7052L231.378 58.5469L226.659 62.2253C226.209 62.5724 225.727 62.7666 225.211 62.808C224.7 62.85 224.196 62.7491 223.7 62.5055C223.208 62.2623 222.764 61.8864 222.367 61.3778C222.023 60.9364 221.785 60.4737 221.653 59.9898C221.523 59.504 221.538 59.0241 221.698 58.55C221.86 58.0742 222.206 57.6313 222.737 57.2214L224.193 59.09C224.026 59.2312 223.903 59.3739 223.824 59.518C223.748 59.6643 223.716 59.8081 223.729 59.9494C223.745 60.0911 223.807 60.2303 223.914 60.367C224.022 60.5059 224.143 60.5989 224.277 60.6458C224.412 60.695 224.559 60.6979 224.716 60.6547C224.875 60.6096 225.044 60.5193 225.223 60.3835L229.942 56.7052Z" fill="white" fill-opacity="0.2"/>
<path d="M240.856 73.6024L233.206 77.8027L232.066 75.7258L239.716 71.5255L240.856 73.6024Z" fill="white" fill-opacity="0.2"/>
<path d="M245.5 83.0437L237.619 86.7921L236.769 85.0064L239.556 80.1893L239.534 80.1432L235.393 82.1125L234.375 79.9729L242.257 76.2245L243.121 78.0409L240.328 82.8045L240.357 82.8661L244.482 80.904L245.5 83.0437Z" fill="white" fill-opacity="0.2"/>
<path d="M238.302 88.5642L246.459 85.4596L248.642 91.1946L246.857 91.8737L245.517 88.3531L244.115 88.8867L245.322 92.0568L243.538 92.736L242.331 89.5658L239.145 90.7785L238.302 88.5642Z" fill="white" fill-opacity="0.2"/>
<path d="M240.953 95.6325L249.315 93.1338L250.393 96.7432C250.579 97.3638 250.618 97.9434 250.513 98.4821C250.407 99.0207 250.171 99.4856 249.804 99.8768C249.438 100.268 248.958 100.552 248.364 100.73C247.766 100.908 247.207 100.93 246.689 100.794C246.172 100.661 245.724 100.39 245.344 99.9822C244.964 99.5766 244.68 99.0553 244.489 98.4184L243.845 96.2626L245.609 95.7355L246.117 97.434C246.196 97.7008 246.31 97.9142 246.459 98.0744C246.611 98.2365 246.79 98.3418 246.994 98.3905C247.199 98.4419 247.42 98.4322 247.657 98.3614C247.896 98.2898 248.085 98.1771 248.223 98.0232C248.364 97.8713 248.451 97.6866 248.484 97.4692C248.521 97.2538 248.499 97.0127 248.419 96.7459L248.18 95.9456L241.631 97.9026L240.953 95.6325Z" fill="white" fill-opacity="0.2"/>
<path d="M245.793 116.446L254.469 115.502L255.149 121.755L253.252 121.961L252.827 118.064L251.336 118.226L251.725 121.802L249.827 122.008L249.438 118.433L247.947 118.595L248.369 122.476L246.471 122.682L245.793 116.446Z" fill="white" fill-opacity="0.2"/>
<path d="M255.599 132.609L246.876 132.864L246.818 130.888L251.309 127.602L251.308 127.55L246.724 127.684L246.655 125.316L255.379 125.061L255.437 127.072L250.962 130.306L250.964 130.374L255.53 130.241L255.599 132.609Z" fill="white" fill-opacity="0.2"/>
<path d="M246.799 134.724L255.515 135.166L255.204 141.295L253.297 141.198L253.488 137.436L251.99 137.36L251.818 140.748L249.912 140.651L250.083 137.263L246.679 137.091L246.799 134.724Z" fill="white" fill-opacity="0.2"/>
<path d="M246.398 142.128L255.059 143.202L254.595 146.941C254.516 147.583 254.319 148.13 254.005 148.581C253.692 149.031 253.289 149.362 252.796 149.573C252.303 149.784 251.75 149.851 251.135 149.775C250.515 149.698 249.995 149.493 249.575 149.16C249.155 148.831 248.853 148.402 248.67 147.876C248.485 147.352 248.434 146.76 248.516 146.101L248.793 143.868L250.62 144.094L250.402 145.854C250.368 146.13 250.386 146.371 250.458 146.578C250.532 146.787 250.653 146.955 250.821 147.082C250.988 147.212 251.194 147.292 251.439 147.322C251.687 147.353 251.905 147.325 252.093 147.24C252.284 147.158 252.438 147.024 252.556 146.838C252.676 146.655 252.753 146.426 252.787 146.149L252.89 145.321L246.107 144.479L246.398 142.128Z" fill="white" fill-opacity="0.2"/>
<path d="M250.015 168.351L241.65 165.863L242.326 163.592L250.69 166.08L250.015 168.351Z" fill="white" fill-opacity="0.2"/>
<path d="M245.277 173.847C245.551 173.922 245.796 173.897 246.01 173.773C246.224 173.65 246.396 173.409 246.526 173.048C246.609 172.818 246.649 172.62 246.646 172.453C246.645 172.289 246.61 172.156 246.542 172.052C246.473 171.949 246.38 171.874 246.26 171.828C246.163 171.787 246.068 171.772 245.973 171.783C245.88 171.798 245.785 171.839 245.688 171.907C245.594 171.976 245.496 172.071 245.394 172.195C245.292 172.318 245.185 172.47 245.075 172.65L244.687 173.271C244.427 173.691 244.159 174.034 243.885 174.3C243.61 174.566 243.329 174.764 243.041 174.892C242.755 175.021 242.463 175.086 242.164 175.087C241.863 175.09 241.557 175.037 241.243 174.926C240.704 174.728 240.296 174.428 240.019 174.026C239.741 173.623 239.595 173.138 239.58 172.571C239.563 172.006 239.681 171.377 239.932 170.682C240.19 169.969 240.521 169.384 240.924 168.929C241.326 168.476 241.8 168.182 242.344 168.047C242.89 167.915 243.507 167.972 244.195 168.218L243.429 170.333C243.173 170.256 242.94 170.242 242.728 170.293C242.517 170.343 242.33 170.454 242.168 170.625C242.006 170.799 241.873 171.027 241.771 171.311C241.685 171.548 241.642 171.758 241.643 171.94C241.644 172.121 241.682 172.272 241.756 172.393C241.83 172.513 241.934 172.599 242.066 172.65C242.193 172.693 242.317 172.691 242.44 172.645C242.564 172.602 242.696 172.505 242.835 172.353C242.977 172.202 243.137 171.986 243.314 171.705L243.786 170.952C244.206 170.282 244.677 169.804 245.197 169.518C245.719 169.236 246.3 169.212 246.94 169.446C247.462 169.632 247.868 169.935 248.156 170.357C248.447 170.782 248.611 171.284 248.649 171.863C248.687 172.444 248.588 173.06 248.353 173.709C248.114 174.372 247.796 174.905 247.399 175.308C247.003 175.711 246.555 175.971 246.057 176.087C245.561 176.206 245.044 176.171 244.506 175.979L245.277 173.847Z" fill="white" fill-opacity="0.2"/>
<path d="M244.382 178.543L246.123 179.328L243.004 186.242L241.264 185.457L242.343 183.065L236.128 180.261L237.088 178.132L243.303 180.936L244.382 178.543Z" fill="white" fill-opacity="0.2"/>
<path d="M240.084 191.739L238.964 193.788L233.714 190.92C233.216 190.645 232.846 190.279 232.604 189.823C232.362 189.37 232.255 188.868 232.281 188.316C232.309 187.768 232.477 187.211 232.786 186.645C233.054 186.154 233.384 185.751 233.776 185.437C234.17 185.125 234.616 184.948 235.115 184.906C235.616 184.866 236.16 185.008 236.747 185.332L235.611 187.411C235.415 187.314 235.235 187.258 235.072 187.243C234.907 187.231 234.762 187.258 234.638 187.326C234.514 187.398 234.411 187.51 234.328 187.662C234.244 187.817 234.206 187.965 234.217 188.106C234.225 188.25 234.281 188.386 234.383 188.513C234.488 188.641 234.638 188.76 234.833 188.87L240.084 191.739Z" fill="white" fill-opacity="0.2"/>
<path d="M223.571 201.245L230.375 206.711L226.435 211.614L224.947 210.418L227.402 207.362L226.233 206.423L223.98 209.227L222.492 208.031L224.745 205.227L223.575 204.288L221.131 207.331L219.642 206.135L223.571 201.245Z" fill="white" fill-opacity="0.2"/>
<path d="M219.933 214.747C220.157 214.925 220.391 214.998 220.637 214.967C220.882 214.939 221.135 214.785 221.396 214.504C221.563 214.326 221.678 214.159 221.741 214.004C221.804 213.853 221.824 213.717 221.802 213.595C221.78 213.473 221.723 213.367 221.631 213.278C221.558 213.202 221.476 213.151 221.385 213.124C221.294 213.101 221.19 213.101 221.074 213.125C220.961 213.151 220.833 213.201 220.691 213.274C220.548 213.347 220.391 213.445 220.218 213.568L219.618 213.987C219.213 214.27 218.833 214.48 218.476 214.617C218.118 214.754 217.782 214.825 217.467 214.829C217.154 214.836 216.859 214.781 216.584 214.664C216.306 214.549 216.045 214.379 215.8 214.154C215.383 213.76 215.126 213.324 215.029 212.845C214.932 212.366 214.988 211.863 215.197 211.335C215.404 210.809 215.759 210.276 216.263 209.736C216.781 209.182 217.315 208.774 217.864 208.514C218.412 208.256 218.963 208.172 219.517 208.261C220.071 208.355 220.616 208.65 221.151 209.146L219.616 210.791C219.411 210.619 219.202 210.514 218.987 210.478C218.773 210.441 218.558 210.469 218.342 210.563C218.124 210.659 217.913 210.817 217.707 211.037C217.535 211.222 217.413 211.398 217.342 211.565C217.272 211.733 217.247 211.886 217.268 212.026C217.289 212.166 217.35 212.286 217.452 212.385C217.552 212.474 217.667 212.521 217.798 212.527C217.929 212.536 218.088 212.499 218.276 212.414C218.466 212.331 218.698 212.195 218.971 212.007L219.701 211.499C220.351 211.049 220.971 210.794 221.562 210.736C222.153 210.681 222.697 210.888 223.193 211.355C223.6 211.731 223.854 212.169 223.953 212.67C224.053 213.176 224.007 213.702 223.815 214.249C223.62 214.798 223.288 215.325 222.817 215.83C222.336 216.345 221.834 216.71 221.311 216.925C220.788 217.14 220.274 217.203 219.771 217.114C219.267 217.029 218.806 216.792 218.386 216.405L219.933 214.747Z" fill="white" fill-opacity="0.2"/>
<path d="M216.797 219.174L218.083 220.585L212.476 225.694L211.19 224.283L213.131 222.515L208.539 217.475L210.265 215.902L214.857 220.942L216.797 219.174Z" fill="white" fill-opacity="0.2"/>
<path d="M207.943 229.324L206.107 230.766L202.411 226.061C202.063 225.612 201.867 225.131 201.823 224.616C201.78 224.104 201.879 223.6 202.12 223.103C202.362 222.61 202.736 222.165 203.243 221.766C203.683 221.421 204.145 221.181 204.629 221.047C205.114 220.915 205.594 220.928 206.068 221.086C206.545 221.247 206.989 221.591 207.401 222.12L205.538 223.584C205.396 223.417 205.253 223.295 205.108 223.217C204.962 223.14 204.818 223.109 204.677 223.122C204.535 223.14 204.396 223.202 204.26 223.309C204.121 223.418 204.029 223.539 203.982 223.673C203.933 223.809 203.931 223.955 203.975 224.112C204.02 224.272 204.111 224.44 204.248 224.619L207.943 229.324Z" fill="white" fill-opacity="0.2"/>
<path d="M191.336 240.241L187.08 232.622L189.148 231.466L193.404 239.086L191.336 240.241Z" fill="white" fill-opacity="0.2"/>
<path d="M183.98 240.943C184.124 241.188 184.317 241.341 184.557 241.401C184.795 241.463 185.087 241.41 185.432 241.243C185.652 241.136 185.819 241.022 185.934 240.9C186.047 240.782 186.115 240.662 186.138 240.541C186.162 240.419 186.147 240.3 186.093 240.184C186.053 240.087 185.994 240.009 185.919 239.951C185.842 239.897 185.745 239.86 185.629 239.84C185.513 239.824 185.376 239.824 185.217 239.841C185.058 239.858 184.876 239.893 184.671 239.945L183.96 240.119C183.48 240.238 183.049 240.296 182.667 240.295C182.285 240.294 181.945 240.239 181.649 240.13C181.355 240.024 181.1 239.866 180.885 239.658C180.668 239.45 180.486 239.198 180.338 238.9C180.091 238.382 180.008 237.883 180.09 237.401C180.172 236.919 180.406 236.469 180.791 236.052C181.174 235.637 181.697 235.268 182.362 234.946C183.045 234.615 183.689 234.427 184.296 234.383C184.9 234.339 185.444 234.459 185.928 234.742C186.412 235.029 186.814 235.5 187.134 236.156L185.11 237.137C184.98 236.903 184.822 236.73 184.636 236.619C184.449 236.507 184.238 236.456 184.003 236.466C183.765 236.477 183.511 236.548 183.24 236.679C183.012 236.79 182.836 236.91 182.709 237.041C182.583 237.171 182.505 237.306 182.474 237.444C182.443 237.582 182.457 237.715 182.516 237.844C182.577 237.963 182.668 238.049 182.788 238.101C182.906 238.157 183.069 238.18 183.275 238.168C183.482 238.16 183.747 238.116 184.069 238.039L184.933 237.829C185.702 237.643 186.372 237.629 186.945 237.787C187.516 237.949 187.948 238.338 188.243 238.952C188.487 239.45 188.566 239.95 188.478 240.453C188.389 240.961 188.156 241.435 187.78 241.876C187.401 242.319 186.901 242.69 186.279 242.991C185.645 243.299 185.046 243.458 184.48 243.47C183.915 243.482 183.413 243.356 182.975 243.091C182.536 242.831 182.191 242.444 181.94 241.931L183.98 240.943Z" fill="white" fill-opacity="0.2"/>
<path d="M177.222 237.463L180.446 245.573L174.743 247.839L174.038 246.065L177.539 244.674L176.985 243.28L173.832 244.533L173.127 242.759L176.279 241.506L175.02 238.338L177.222 237.463Z" fill="white" fill-opacity="0.2"/>
<path d="M169.064 249.745L166.839 250.455L165.021 244.755C164.851 244.212 164.836 243.693 164.975 243.195C165.113 242.701 165.382 242.263 165.782 241.882C166.181 241.504 166.687 241.218 167.302 241.022C167.835 240.852 168.351 240.788 168.851 240.832C169.352 240.878 169.797 241.058 170.186 241.372C170.577 241.689 170.872 242.167 171.073 242.806L168.816 243.526C168.741 243.321 168.65 243.156 168.542 243.032C168.431 242.91 168.308 242.83 168.171 242.793C168.032 242.76 167.88 242.769 167.715 242.822C167.547 242.876 167.418 242.957 167.327 243.066C167.234 243.177 167.181 243.313 167.167 243.475C167.154 243.64 167.181 243.83 167.246 244.045L169.064 249.745Z" fill="white" fill-opacity="0.2"/>
<path d="M150.169 245.32L151.308 253.972L145.072 254.793L144.823 252.9L148.71 252.389L148.514 250.901L144.949 251.371L144.699 249.478L148.265 249.009L148.069 247.522L144.199 248.031L143.95 246.138L150.169 245.32Z" fill="white" fill-opacity="0.2"/>
<path d="M138.063 252.569C138.101 252.852 138.22 253.067 138.419 253.215C138.615 253.364 138.904 253.427 139.287 253.406C139.531 253.392 139.73 253.351 139.882 253.283C140.032 253.218 140.141 253.134 140.21 253.03C140.278 252.927 140.31 252.811 140.305 252.683C140.305 252.578 140.282 252.484 140.234 252.401C140.184 252.322 140.109 252.25 140.009 252.188C139.909 252.128 139.782 252.075 139.629 252.03C139.476 251.984 139.294 251.946 139.085 251.915L138.361 251.802C137.873 251.726 137.453 251.615 137.101 251.466C136.748 251.318 136.456 251.137 136.225 250.922C135.994 250.71 135.82 250.467 135.702 250.191C135.582 249.916 135.511 249.613 135.489 249.281C135.46 248.708 135.576 248.215 135.838 247.802C136.099 247.389 136.488 247.065 137.004 246.828C137.517 246.592 138.143 246.453 138.88 246.412C139.638 246.37 140.305 246.445 140.882 246.638C141.456 246.83 141.912 247.151 142.25 247.598C142.585 248.049 142.775 248.639 142.818 249.368L140.571 249.493C140.542 249.227 140.463 249.007 140.334 248.832C140.205 248.657 140.03 248.529 139.809 248.447C139.585 248.366 139.323 248.334 139.023 248.35C138.77 248.364 138.56 248.407 138.394 248.479C138.227 248.551 138.103 248.645 138.021 248.76C137.939 248.876 137.901 249.005 137.906 249.147C137.916 249.28 137.967 249.394 138.057 249.488C138.145 249.586 138.287 249.669 138.481 249.738C138.676 249.809 138.937 249.872 139.264 249.925L140.142 250.063C140.923 250.188 141.547 250.433 142.014 250.8C142.479 251.169 142.729 251.695 142.764 252.376C142.797 252.929 142.677 253.42 142.402 253.851C142.125 254.285 141.727 254.633 141.21 254.895C140.69 255.157 140.085 255.308 139.395 255.346C138.692 255.385 138.077 255.302 137.55 255.095C137.024 254.888 136.61 254.578 136.308 254.165C136.003 253.755 135.834 253.266 135.799 252.696L138.063 252.569Z" fill="white" fill-opacity="0.2"/>
<path d="M133.584 246.756L133.441 255.482L127.305 255.382L127.337 253.473L131.103 253.534L131.128 252.034L127.736 251.979L127.767 250.07L131.159 250.126L131.215 246.717L133.584 246.756Z" fill="white" fill-opacity="0.2"/>
<path d="M120.746 254.918L118.42 254.71L118.951 248.751C119.005 248.185 119.192 247.7 119.513 247.295C119.832 246.893 120.249 246.593 120.766 246.397C121.279 246.203 121.857 246.135 122.499 246.192C123.057 246.242 123.558 246.384 124.002 246.617C124.446 246.853 124.786 247.192 125.024 247.632C125.261 248.076 125.348 248.631 125.286 249.298L122.926 249.088C122.937 248.869 122.916 248.682 122.865 248.527C122.81 248.37 122.727 248.249 122.615 248.162C122.5 248.078 122.356 248.028 122.183 248.012C122.008 247.997 121.857 248.022 121.732 248.088C121.603 248.153 121.501 248.258 121.425 248.403C121.35 248.55 121.3 248.735 121.277 248.958L120.746 254.918Z" fill="white" fill-opacity="0.2"/>
<path d="M100.313 251.28L102.477 242.826L104.773 243.413L102.609 251.868L100.313 251.28Z" fill="white" fill-opacity="0.2"/>
<path d="M95.264 246.963C95.2005 247.241 95.2357 247.484 95.3695 247.693C95.5007 247.901 95.7492 248.062 96.1151 248.177C96.3481 248.251 96.5481 248.282 96.7151 248.272C96.8785 248.264 97.0103 248.224 97.1106 248.151C97.2109 248.078 97.2816 247.981 97.3226 247.86C97.3595 247.762 97.3705 247.665 97.3554 247.571C97.3367 247.479 97.2916 247.386 97.2199 247.292C97.1473 247.201 97.0473 247.107 96.9199 247.01C96.7924 246.913 96.6362 246.814 96.4511 246.711L95.8141 246.35C95.3841 246.107 95.0302 245.855 94.7526 245.592C94.4749 245.329 94.2658 245.056 94.1253 244.773C93.9839 244.494 93.9066 244.204 93.8934 243.905C93.8775 243.606 93.918 243.297 94.015 242.979C94.1898 242.432 94.4724 242.012 94.8627 241.718C95.253 241.423 95.7313 241.257 96.2975 241.217C96.8611 241.177 97.4952 241.268 98.1999 241.489C98.9235 241.717 99.5213 242.022 99.9933 242.406C100.463 242.789 100.776 243.249 100.935 243.787C101.09 244.327 101.059 244.946 100.843 245.643L98.6962 244.969C98.7628 244.71 98.7664 244.475 98.7071 244.266C98.6478 244.057 98.5292 243.875 98.3514 243.721C98.1708 243.566 97.9369 243.443 97.6496 243.353C97.4084 243.277 97.1971 243.244 97.0158 243.252C96.8344 243.261 96.6851 243.304 96.5679 243.384C96.4506 243.463 96.3694 243.57 96.324 243.705C96.2867 243.833 96.2938 243.957 96.3453 244.078C96.3932 244.2 96.496 244.328 96.6537 244.461C96.8106 244.596 97.0329 244.746 97.3205 244.911L98.0936 245.351C98.7805 245.743 99.2779 246.192 99.5858 246.7C99.8902 247.21 99.9387 247.789 99.7315 248.439C99.5681 248.968 99.2819 249.386 98.873 249.692C98.4604 250 97.9658 250.186 97.3892 250.249C96.8098 250.311 96.1909 250.238 95.5323 250.031C94.8602 249.82 94.3142 249.525 93.8944 249.145C93.4746 248.766 93.1962 248.33 93.0592 247.838C92.9187 247.347 92.9328 246.829 93.1013 246.283L95.264 246.963Z" fill="white" fill-opacity="0.2"/>
<path d="M89.7381 245.991L89.0204 247.76L81.9916 244.908L82.7093 243.139L85.1417 244.126L87.705 237.808L89.8689 238.686L87.3057 245.004L89.7381 245.991Z" fill="white" fill-opacity="0.2"/>
<path d="M84.5392 236.511L80.6494 244.324L77.2772 242.645C76.6974 242.356 76.247 241.989 75.9261 241.543C75.6052 241.098 75.4271 240.608 75.3919 240.073C75.3567 239.538 75.4771 238.994 75.7531 238.439C76.0317 237.88 76.3975 237.457 76.8506 237.172C77.3011 236.885 77.8053 236.743 78.363 236.744C78.9182 236.745 79.4934 236.893 80.0885 237.189L82.1026 238.192L81.2822 239.84L79.6952 239.05C79.446 238.926 79.2121 238.863 78.9936 238.863C78.7713 238.863 78.5725 238.921 78.3974 239.037C78.2197 239.152 78.0758 239.32 77.9657 239.541C77.8542 239.765 77.8076 239.979 77.8257 240.185C77.84 240.392 77.9153 240.582 78.0516 240.755C78.184 240.928 78.3748 241.077 78.624 241.202L79.3717 241.574L82.4182 235.455L84.5392 236.511Z" fill="white" fill-opacity="0.2"/>
<path d="M65.9946 225.893L60.76 232.876L55.7272 229.104L56.8723 227.576L60.0092 229.928L60.9089 228.727L58.0311 226.57L59.1762 225.043L62.054 227.2L62.9537 226L59.8304 223.658L60.9754 222.131L65.9946 225.893Z" fill="white" fill-opacity="0.2"/>
<path d="M52.3441 222.704C52.1744 222.933 52.1089 223.17 52.1477 223.415C52.1843 223.658 52.3471 223.906 52.636 224.158C52.82 224.319 52.9905 224.428 53.1475 224.486C53.3004 224.544 53.4374 224.56 53.5584 224.533C53.6795 224.507 53.7831 224.447 53.8693 224.352C53.9427 224.277 53.9914 224.193 54.0153 224.101C54.0353 224.009 54.0313 223.905 54.0033 223.791C53.9736 223.678 53.9197 223.552 53.8418 223.412C53.7638 223.272 53.6608 223.118 53.5326 222.95L53.0941 222.363C52.7976 221.969 52.5749 221.595 52.4262 221.243C52.2775 220.89 52.1954 220.557 52.1801 220.242C52.1629 219.929 52.2083 219.633 52.3162 219.354C52.422 219.073 52.5831 218.806 52.7995 218.554C53.1791 218.123 53.6066 217.852 54.0822 217.739C54.5578 217.626 55.0628 217.665 55.5972 217.857C56.1295 218.046 56.6739 218.384 57.2304 218.869C57.8018 219.368 58.2266 219.888 58.5049 220.429C58.7811 220.968 58.8837 221.516 58.8127 222.072C58.7377 222.629 58.4612 223.183 57.9832 223.735L56.2882 222.255C56.4531 222.045 56.5504 221.832 56.5801 221.616C56.6098 221.401 56.5741 221.187 56.4731 220.974C56.37 220.76 56.205 220.554 55.9781 220.356C55.7877 220.189 55.6077 220.074 55.4381 220.009C55.2686 219.944 55.1143 219.924 54.9751 219.949C54.8359 219.975 54.7185 220.04 54.6229 220.145C54.5373 220.248 54.4938 220.365 54.4926 220.496C54.4874 220.627 54.5304 220.785 54.6215 220.97C54.7107 221.157 54.8539 221.384 55.0512 221.651L55.5828 222.364C56.0547 222.998 56.3297 223.61 56.4079 224.198C56.482 224.787 56.2939 225.338 55.8433 225.849C55.4811 226.269 55.0513 226.536 54.5538 226.653C54.0523 226.769 53.5249 226.74 52.9715 226.567C52.4159 226.391 51.8781 226.076 51.3581 225.622C50.8273 225.159 50.4458 224.669 50.2135 224.153C49.9812 223.637 49.9012 223.126 49.9736 222.62C50.042 222.114 50.2629 221.645 50.6362 221.213L52.3441 222.704Z" fill="white" fill-opacity="0.2"/>
<path d="M47.71 219.636L46.342 220.967L41.0512 215.532L42.4192 214.2L44.2502 216.081L49.1359 211.326L50.7648 212.999L45.8791 217.755L47.71 219.636Z" fill="white" fill-opacity="0.2"/>
<path d="M46.6105 208.704L39.9074 214.292L37.4951 211.399C37.0803 210.902 36.8156 210.384 36.7009 209.848C36.5862 209.311 36.6202 208.79 36.8031 208.287C36.9859 207.783 37.3152 207.333 37.7908 206.936C38.2709 206.536 38.7757 206.296 39.3053 206.217C39.833 206.136 40.3519 206.208 40.862 206.434C41.3702 206.657 41.8371 207.024 42.2628 207.535L43.7037 209.263L42.2897 210.442L41.1545 209.08C40.9762 208.867 40.7872 208.715 40.5875 208.627C40.3838 208.538 40.1785 208.511 39.9715 208.547C39.7627 208.58 39.5634 208.676 39.3736 208.834C39.1816 208.994 39.0525 209.172 38.9863 209.368C38.9162 209.563 38.9088 209.767 38.9641 209.98C39.0154 210.193 39.1302 210.406 39.3085 210.62L39.8434 211.261L45.0933 206.884L46.6105 208.704Z" fill="white" fill-opacity="0.2"/>
<path d="M24.99 193.521L32.5147 189.1L33.7149 191.143L26.1902 195.564L24.99 193.521Z" fill="white" fill-opacity="0.2"/>
<path d="M24.4622 186.824C24.2202 186.975 24.0722 187.171 24.0181 187.413C23.9628 187.653 24.0231 187.943 24.1991 188.284C24.3112 188.501 24.4296 188.665 24.5543 188.777C24.6752 188.887 24.7967 188.952 24.919 188.972C25.0412 188.992 25.1598 188.974 25.2747 188.918C25.3707 188.875 25.4468 188.815 25.5029 188.738C25.5553 188.66 25.5896 188.562 25.6059 188.445C25.6196 188.329 25.6159 188.192 25.5948 188.033C25.5737 187.875 25.5344 187.694 25.4772 187.49L25.285 186.783C25.1543 186.307 25.0845 185.878 25.0757 185.496C25.0669 185.113 25.1133 184.773 25.2149 184.474C25.3139 184.177 25.4649 183.918 25.6679 183.698C25.8696 183.476 26.1174 183.287 26.4114 183.132C26.9226 182.871 27.4201 182.776 27.9038 182.846C28.3876 182.916 28.8428 183.138 29.2695 183.512C29.6949 183.884 30.0771 184.398 30.416 185.054C30.764 185.728 30.9681 186.368 31.028 186.973C31.0867 187.576 30.9808 188.123 30.7102 188.615C30.4358 189.105 29.9748 189.519 29.3274 189.856L28.2951 187.857C28.5258 187.722 28.6946 187.56 28.8014 187.37C28.9082 187.181 28.9537 186.969 28.938 186.734C28.9209 186.496 28.8433 186.244 28.7051 185.976C28.5891 185.752 28.4642 185.578 28.3305 185.455C28.1967 185.332 28.0604 185.257 27.9216 185.23C27.7827 185.203 27.6495 185.22 27.522 185.283C27.4047 185.347 27.3214 185.439 27.2722 185.56C27.2191 185.681 27.2009 185.843 27.2175 186.049C27.2317 186.256 27.2815 186.52 27.367 186.84L27.5992 187.698C27.8049 188.462 27.8358 189.132 27.6921 189.708C27.5446 190.283 27.1673 190.726 26.5602 191.036C26.0693 191.293 25.5711 191.384 25.0657 191.309C24.5565 191.233 24.0765 191.012 23.6257 190.647C23.1737 190.28 22.7893 189.789 22.4726 189.176C22.1493 188.55 21.9744 187.954 21.948 187.389C21.9216 186.824 22.0351 186.319 22.2885 185.875C22.5381 185.43 22.9159 185.075 23.422 184.81L24.4622 186.824Z" fill="white" fill-opacity="0.2"/>
<path d="M27.4655 179.327L19.4278 182.727L17.037 177.076L18.7952 176.332L20.2629 179.801L21.6444 179.217L20.3228 176.093L22.081 175.349L23.4026 178.473L26.5423 177.145L27.4655 179.327Z" fill="white" fill-opacity="0.2"/>
<path d="M24.5916 172.495L16.3271 175.299L15.1168 171.731C14.9087 171.118 14.8476 170.54 14.9337 169.998C15.0197 169.456 15.2386 168.983 15.5905 168.578C15.9423 168.174 16.4114 167.872 16.9979 167.673C17.5897 167.472 18.147 167.43 18.6696 167.547C19.1912 167.661 19.6494 167.915 20.0441 168.309C20.4379 168.701 20.7416 169.211 20.9552 169.841L21.6781 171.971L19.9348 172.563L19.3652 170.884C19.2758 170.62 19.1538 170.411 18.9994 170.257C18.8413 170.1 18.6593 170.002 18.4534 169.96C18.2465 169.917 18.026 169.934 17.792 170.014C17.5552 170.094 17.3708 170.214 17.2387 170.373C17.103 170.53 17.0227 170.717 16.9978 170.936C16.9693 171.152 16.9998 171.393 17.0892 171.656L17.3576 172.447L23.8304 170.251L24.5916 172.495Z" fill="white" fill-opacity="0.2"/>
<path d="M19.5482 151.153L10.9015 152.336L10.049 146.104L11.9405 145.846L12.4718 149.73L13.958 149.527L13.4706 145.963L15.362 145.704L15.8495 149.268L17.3356 149.065L16.8066 145.197L18.6981 144.938L19.5482 151.153Z" fill="white" fill-opacity="0.2"/>
<path d="M12.239 139.095C11.9569 139.135 11.7422 139.255 11.595 139.455C11.4476 139.652 11.3855 139.941 11.4089 140.324C11.4238 140.568 11.4657 140.766 11.5348 140.918C11.6008 141.068 11.6857 141.177 11.7895 141.244C11.8932 141.312 12.009 141.344 12.1367 141.339C12.242 141.338 12.3359 141.314 12.4183 141.266C12.4978 141.216 12.5686 141.14 12.6308 141.039C12.6902 140.939 12.7422 140.812 12.7869 140.659C12.8316 140.505 12.8689 140.323 12.8988 140.114L13.0084 139.39C13.0811 138.902 13.1906 138.481 13.337 138.127C13.4834 137.774 13.6634 137.481 13.8769 137.249C14.0876 137.017 14.3302 136.842 14.6047 136.722C14.8791 136.6 15.182 136.528 15.5136 136.505C16.0866 136.473 16.5802 136.586 16.9945 136.846C17.4088 137.105 17.7355 137.492 17.9746 138.007C18.2136 138.519 18.3556 139.144 18.4005 139.881C18.4467 140.638 18.375 141.305 18.1854 141.883C17.9956 142.459 17.6777 142.916 17.2316 143.257C16.7826 143.594 16.1938 143.787 15.4652 143.834L15.3283 141.588C15.594 141.558 15.8139 141.477 15.9881 141.347C16.1624 141.217 16.2897 141.041 16.3701 140.82C16.4504 140.596 16.4814 140.334 16.463 140.033C16.4477 139.781 16.4036 139.571 16.3308 139.405C16.2581 139.239 16.1637 139.115 16.0478 139.034C15.9318 138.953 15.8029 138.915 15.6609 138.921C15.5278 138.932 15.4142 138.983 15.3202 139.074C15.2231 139.162 15.1407 139.304 15.0728 139.499C15.0022 139.694 14.9413 139.955 14.8901 140.283L14.7558 141.162C14.6356 141.943 14.3933 142.569 14.0292 143.038C13.662 143.504 13.138 143.757 12.4573 143.795C11.9045 143.832 11.412 143.714 10.9799 143.441C10.5447 143.166 10.1947 142.77 9.92986 142.254C9.66483 141.735 9.51132 141.131 9.46931 140.442C9.42643 139.739 9.50703 139.124 9.7111 138.596C9.91516 138.069 10.2228 137.653 10.6341 137.349C11.0423 137.042 11.5313 136.87 12.1011 136.832L12.239 139.095Z" fill="white" fill-opacity="0.2"/>
<path d="M18.0303 133.801L9.30394 133.671L9.39484 127.536L11.3037 127.564L11.2479 131.33L12.7478 131.353L12.798 127.961L14.7069 127.989L14.6566 131.381L18.0654 131.431L18.0303 133.801Z" fill="white" fill-opacity="0.2"/>
<path d="M18.1531 126.507L9.45908 125.746L9.7875 121.993C9.84397 121.348 10.0207 120.795 10.3178 120.333C10.6149 119.871 11.0058 119.526 11.4906 119.298C11.9755 119.069 12.5264 118.982 13.1433 119.036C13.766 119.091 14.2929 119.276 14.7243 119.594C15.1559 119.908 15.4731 120.325 15.6757 120.845C15.8786 121.361 15.951 121.951 15.8931 122.613L15.6969 124.855L13.863 124.694L14.0176 122.928C14.0418 122.651 14.0144 122.41 13.9353 122.207C13.8536 122 13.7267 121.836 13.5547 121.716C13.383 121.592 13.1741 121.52 12.9279 121.498C12.6788 121.476 12.4618 121.512 12.277 121.604C12.0895 121.693 11.9404 121.832 11.8297 122.022C11.7164 122.209 11.6476 122.441 11.6233 122.719L11.5505 123.551L18.3597 124.147L18.1531 126.507Z" fill="white" fill-opacity="0.2"/>
</svg>
