<svg width="32" height="22" viewBox="0 0 32 22" fill="none" xmlns="http://www.w3.org/2000/svg">
<path d="M30.8659 0.626383C30.7347 0.503518 30.5587 0.427028 30.3637 0.424276C30.1448 0.421186 29.9475 0.511412 29.8074 0.65845L11.2497 19.4317L1.44839 9.18143C1.31432 9.04353 1.12853 8.9569 0.920549 8.95396C0.50659 8.94812 0.166897 9.27836 0.161055 9.69232C0.158106 9.9013 0.240431 10.0915 0.376498 10.2294L10.725 21.0385L10.7399 21.0447L10.7467 21.0598C10.875 21.1836 11.0499 21.2611 11.2429 21.2638C11.4419 21.2666 11.624 21.1892 11.7578 21.0611L11.7849 21.0504L11.7901 21.0395L11.8073 21.0277L30.898 1.68594C31.0219 1.55467 31.0994 1.37775 31.1021 1.18277C31.1052 0.963792 31.013 0.765471 30.8659 0.626383Z" fill="white"/>
</svg>
