<svg width="22" height="22" viewBox="0 0 22 22" fill="none" xmlns="http://www.w3.org/2000/svg">
<path d="M12.062 11L21.432 1.63C21.568 1.494 21.651 1.307 21.651 1.1C21.651 0.684999 21.315 0.348999 20.9 0.348999C20.692 0.348999 20.505 0.432999 20.369 0.568999L11 9.938L1.63 0.568999C1.495 0.437999 1.311 0.356999 1.108 0.356999C0.693999 0.356999 0.357999 0.692999 0.357999 1.107C0.357999 1.31 0.438999 1.494 0.569999 1.629L9.938 10.998L0.568999 20.367C0.432999 20.503 0.348999 20.691 0.348999 20.898C0.348999 21.313 0.684999 21.649 1.1 21.649C1.307 21.649 1.494 21.565 1.63 21.43L11 12.06L20.369 21.43C20.505 21.566 20.693 21.65 20.9 21.65C21.315 21.65 21.651 21.314 21.651 20.899C21.651 20.692 21.567 20.504 21.431 20.368L12.062 11Z" fill="white"/>
</svg>
