<svg width="1024" height="1024" viewBox="0 0 1024 1024" fill="none" xmlns="http://www.w3.org/2000/svg">
<rect width="1024" height="1024" rx="512" fill="#070707"/>
<path d="M520.65 914.001C534.975 896.001 565.351 865.001 586.591 847.001L588.571 845.258C599.646 835.511 613.412 823.393 619.932 817.5L632.281 805.999L664.386 803.749C699.209 801.249 771.326 800.749 789.107 802.749L800.221 804L798.985 791.499C797.009 771.999 797.504 704.998 799.973 667.749L801.949 633.999L813.555 621.501C819.977 614.501 832.573 600 841.71 588.75C859.492 566.751 896.539 530.25 910.863 520.251C915.801 516.752 919.998 513.503 920 512.751C919.754 512.001 913.085 506.499 904.935 500.25C887.895 487.5 859.986 458.751 825.905 418.749L802.195 391.249L799.973 357.499C797.504 320.998 797.009 254.001 798.985 234L800.221 221.5L787.872 222.75C768.362 224.751 699.704 224.25 664.386 221.751L632.281 219.75L621.167 209.25C614.994 203.25 599.433 189.501 586.591 178.5C573.749 167.25 555.473 150 545.841 139.5C536.455 129.25 524.601 116.251 519.909 110.501L511.266 100L501.635 113.749C490.521 129.499 459.403 160.751 419.64 195.501L392.473 219.501L360.367 221.751C325.793 224.25 256.888 224.751 237.13 222.75L224.781 221.5L226.016 234C227.993 253.75 227.498 323.25 225.029 359.001L223.051 391.5L212.68 402.75C206.999 409 194.404 423.499 184.772 435.25C164.767 459.499 128.216 495.75 114.385 505.251C109.199 508.751 105 512.001 105 512.751C105.002 513.503 109.201 516.752 114.139 520.251C127.968 529.751 163.534 564.752 181.562 586.751C190.453 597.501 203.296 612.499 210.211 619.999L222.806 633.999L225.029 666.501C227.498 701.751 227.993 774.75 226.016 792.75L224.781 804L237.13 802.749C256.888 800.749 325.791 801.249 360.614 803.749L392.721 805.999L412.477 823.749C423.591 833.499 440.88 848.751 451.006 857.751C466.812 871.751 477.431 883.001 506.326 916.5L512.748 924L520.65 914.001ZM501.14 854.749C494.472 847.999 477.185 832.251 462.613 819.75C447.796 807.002 435.942 796.253 435.94 795.501C435.94 794.751 441.867 790.5 448.784 786.501C465.084 777 495.461 747.999 504.352 733.749C508.055 727.751 511.757 722.754 512.5 722.751C513.241 722.751 516.945 727.749 520.65 733.749C527.566 744.999 562.634 780.248 566.586 780.249C567.822 780.249 573.995 774.501 580.417 767.25L592.025 754.251L584.863 749.25C571.034 739.5 552.016 717.75 545.102 703.5C536.211 685.751 529.787 665.499 520.896 627C516.945 611.001 513.243 597.754 512.254 597.75C511.266 597.75 509.29 603.75 507.562 610.751C495.707 663 489.285 685.251 480.889 701.25C469.527 723.249 447.3 745.999 425.814 757.749C410.008 766.5 410.008 766.5 377.903 766.5C360.367 766.5 328.014 765.501 306.033 764.25L266.272 762L264.79 726.75C263.801 707.25 262.319 683.501 261.578 673.5L259.852 655.5L270.471 659.25C293.439 667.249 337.399 668.248 361.601 661.249C367.035 659.499 367.282 660 365.305 668.001C364.072 672.75 363.085 690.501 363.085 707.751V738.999L398.154 740.501L397.907 712.249C397.659 672.999 402.845 657.999 436.435 603.251C446.066 587.751 453.229 574.5 452.488 573.499C451.499 572.749 438.163 580.249 422.604 589.999C369.999 623.25 343.326 632.25 308.011 629.25C270.717 625.749 252.935 614.499 216.136 571.249C203.541 556.249 186.5 537 178.104 528.499L163.285 513L179.339 495.999C188.23 486.75 203.541 469.251 213.419 457.001C223.297 445.001 232.188 435.251 233.177 435.25C233.918 435.25 238.117 441.25 242.068 448.251C251.454 464.751 280.103 495.501 294.18 504.501C300.107 508.251 305.045 512.001 305.045 512.751C305.044 513.503 300.105 517.251 294.18 520.999C283.315 528 248.249 563.244 248.244 567.499C248.244 570.75 269.976 590.25 273.435 590.25C275.163 590.25 279.362 586.251 282.572 581.25C302.33 552 333.448 536.25 404.574 520.251C417.662 517.001 428.527 513.752 428.531 512.751C428.531 511.751 409.514 506.25 386.299 500.501C356.17 493.251 339.129 487.749 326.534 481C303.565 468.75 280.844 445.75 269.976 423.499C262.075 407.001 261.826 405.75 261.826 375.25C261.826 358 262.815 326.001 264.049 303.75L266.272 263.5L301.095 262.001C320.358 261 344.067 259.5 353.945 258.75L371.727 257.001L367.528 268.001C364.566 276.251 363.331 287.501 363.331 314.001C363.083 333.25 363.824 352.748 364.813 357.499C366.787 365.25 366.541 365.749 361.108 364C358.141 363 340.361 361.5 321.84 361L287.758 359.749V397.001L315.665 396.75C354.192 396.501 369.012 401.751 423.096 435.75C438.409 445.5 451.499 452.751 452.488 452.001C453.227 450.998 446.065 437.749 436.681 422.25C427.049 406.751 416.676 388.999 413.713 382.75C393.708 342.75 391.485 301.001 407.539 265.751C415.443 248.501 420.627 242.749 461.872 206.5C479.654 191.001 497.928 174.251 502.374 169.251C507.065 164.252 511.757 160.253 512.5 160.251C513.487 160.251 516.699 163.251 520.157 166.751C523.369 170.501 539.915 185.751 556.955 200.751C573.99 215.996 588.065 228.992 588.321 229.999C588.567 230.749 582.64 235.251 574.983 240C557.695 250.751 529.541 277.251 520.65 291.75C516.945 297.75 513.241 302.751 512.5 302.751C511.757 302.749 508.055 297.748 504.352 291.75C497.435 280.5 462.37 245.256 458.415 245.25C457.18 245.25 451.006 251.001 444.585 258.251L432.976 271.249L440.139 276.25C453.968 286 472.245 307.5 480.889 324.501C490.026 341.751 495.705 360.25 505.091 403.251C508.301 416.751 511.266 427.75 512.254 427.75C513.243 427.746 516.945 414.497 520.896 398.25C530.282 358.5 536.457 339.251 545.595 321.501C556.216 300.75 579.428 277.999 600.422 267.499C616.968 259.249 617.957 259 648.335 259C665.376 259 696.986 260.001 718.967 261.25L758.73 263.5L760.21 298.75C761.199 318.25 762.681 342 763.422 352.001L765.15 370L754.283 365.751C742.18 361.251 680.936 359.751 666.363 363.499L658.213 365.751L660.187 357.25C661.176 352.75 661.917 335.001 661.917 317.751V286.5L625.613 285L627.341 303.75C630.799 340.75 621.167 369.75 585.852 427.249C577.948 440.25 572.021 451.251 572.514 451.751C573.26 452.498 586.843 444.998 602.893 435C643.148 410.25 664.388 400.75 686.367 397.249C719.955 392.001 759.225 402.25 778.981 421C783.426 425.501 796.763 440.25 808.369 454C820.224 467.749 836.772 486.499 845.415 495.75L861.468 512.499L842.945 532.5C832.821 543.251 817.508 560.749 808.864 571.249C799.973 581.749 792.317 590.25 791.576 590.25C790.835 590.25 786.39 583.249 781.698 574.999C771.82 557.749 747.122 531.249 730.822 520.999C724.896 517.001 719.956 513.503 719.955 512.751C719.955 512.001 724.895 508.251 730.822 504.501C741.935 497.499 776.756 462.002 776.758 458.001C776.758 456.75 771.077 450.501 763.915 444L751.075 432.25L746.135 439.5C736.503 453.499 715.015 472.75 700.937 479.749C683.404 488.749 663.399 495.251 625.613 504.251C609.563 508.251 596.475 511.999 596.471 513C596.471 513.75 609.561 517.75 625.613 521.499C671.549 532.249 680.688 535.249 698.963 544.999C721.436 556.749 744.158 579.999 755.025 602.001C762.927 618.501 763.176 619.749 763.176 650.25C763.176 667.5 762.186 699.501 760.953 721.751L758.73 762L723.907 763.5C704.644 764.501 680.935 766.001 671.056 766.751L653.273 768.499L657.472 757.5C660.435 749.25 661.669 738 661.669 711.501C661.917 692.25 661.176 672.75 660.187 668.001C658.213 660.251 658.459 659.751 663.892 661.5C666.855 662.499 684.639 663.999 703.408 664.5L737.244 665.751V627.499L716.745 629.25C680.686 632.25 659.2 624.999 604.867 591.501C587.826 581.001 573.255 573 572.76 573.499C571.526 574.751 579.676 589.251 595.235 613.749C610.054 637.249 623.144 667.5 626.107 685.999C632.035 719.749 623.883 756.999 605.608 778.749C600.668 785.001 581.653 802.751 563.625 818.499C545.595 834.249 526.825 851.751 521.885 857.25L512.995 867.249L501.14 854.749Z" fill="#F7D5AD"/>
</svg>
