<svg width="24" height="24" viewBox="0 0 24 24" fill="none" xmlns="http://www.w3.org/2000/svg">
	<!-- https://www.svgrepo.com/svg/473114/circle-notch -->
	<path fill="currentColor" d="M15.1613 1.39572C15.114 1.38147 15.0593 1.37322 15.0023 1.37322C14.6918 1.37322 14.4398 1.62522 14.4398 1.93572C14.4398 2.18772 14.6063 2.40147 14.835 2.47272L14.8388 2.47347C18.9773 3.73572 21.9368 7.52022 21.9368 11.9962C21.9368 17.4847 17.4878 21.9337 11.9993 21.9337C6.51075 21.9337 2.06175 17.4847 2.06175 11.9962C2.06175 7.52022 5.0205 3.73572 9.08925 2.49222L9.15975 2.47347C9.39525 2.40297 9.564 2.18772 9.564 1.93347C9.564 1.62297 9.312 1.37097 9.0015 1.37097C8.943 1.37097 8.8875 1.37997 8.83425 1.39647L8.838 1.39572C4.22925 2.80047 0.93375 7.01472 0.93375 11.9985C0.93375 18.1087 5.88675 23.0617 11.997 23.0617C18.1073 23.0617 23.0603 18.1087 23.0603 11.9992C23.0393 7.02297 19.755 2.81922 15.2378 1.41597L15.159 1.39497L15.1613 1.39572Z" />
</svg>
