<!-- See: https://www.svgrepo.com/svg/473072/c -->
<svg width="32" height="32" viewBox="0 0 32 32" fill="none" xmlns="http://www.w3.org/2000/svg">
<path d="M20.215 1.861C20.152 1.842 20.079 1.831 20.003 1.831C19.589 1.831 19.253 2.167 19.253 2.581C19.253 2.917 19.475 3.202 19.78 3.297L19.785 3.298C25.303 4.981 29.249 10.027 29.249 15.995C29.249 23.313 23.317 29.245 15.999 29.245C8.68099 29.245 2.749 23.313 2.749 15.995C2.749 10.027 6.694 4.981 12.119 3.323L12.213 3.298C12.527 3.204 12.752 2.917 12.752 2.578C12.752 2.164 12.416 1.828 12.002 1.828C11.924 1.828 11.85 1.84 11.779 1.862L11.784 1.861C5.639 3.734 1.245 9.353 1.245 15.998C1.245 24.145 7.849 30.749 15.996 30.749C24.143 30.749 30.747 24.145 30.747 15.999C30.719 9.364 26.34 3.759 20.317 1.888L20.212 1.86L20.215 1.861Z" fill="white"/>
</svg>
