<svg width="24" height="24" viewBox="0 0 24 24" fill="none" xmlns="http://www.w3.org/2000/svg">
<path fill="currentColor" d="M22.7858 12C22.7858 17.9297 18.1647 22.7368 12.4643 22.7368C10.8155 22.7368 9.25857 22.3351 7.87748 21.6211C7.57713 21.4659 7.21276 21.5932 7.06349 21.9056C6.91441 22.218 7.03681 22.597 7.33707 22.7523C8.88226 23.551 10.6238 24 12.4643 24C18.8354 24 24 18.6274 24 12C24 5.37258 18.8353 0 12.4643 0C10.6238 0 8.88226 0.448939 7.33707 1.24774C7.03681 1.40299 6.91441 1.78194 7.06349 2.09431C7.21276 2.40667 7.57713 2.53415 7.87748 2.3789C9.25857 1.66497 10.8155 1.26316 12.4643 1.26316C18.1646 1.26316 22.7858 6.07023 22.7858 12Z" />
<path fill="currentColor" d="M5.13364 17.8047C5.37544 18.0651 5.76741 18.0651 6.00922 17.8047C6.25091 17.5444 6.25091 17.1223 6.00922 16.8619L2.11355 12.6666H12.3809C12.7227 12.6666 13 12.3681 13 12C13 11.6318 12.7227 11.3333 12.3809 11.3333H2.11355L6.00922 7.13812C6.25091 6.87772 6.25091 6.45562 6.00922 6.19522C5.76741 5.93493 5.37544 5.93493 5.13364 6.19522L0.181249 11.5285C0.123213 11.5909 0.077295 11.6651 0.0461693 11.7468C0.0156008 11.8272 -8.2847e-05 11.9132 7.24385e-07 12C-0.000240704 12.1697 0.0598749 12.3332 0.168016 12.4567L0.182874 12.4731L5.13364 17.8047Z" />
</svg>
