<svg width="24" height="24" viewBox="0 0 24 24" fill="none" xmlns="http://www.w3.org/2000/svg">
  <g fill="currentColor">
    <path d="M12 1C14.4764 1 16.7611 1.81917 18.5996 3.2002L18.5967 3.20312C18.7668 3.31473 18.8798 3.50599 18.8799 3.72461C18.8799 4.06979 18.6001 4.34961 18.2549 4.34961C18.1172 4.34958 17.991 4.30397 17.8877 4.22852C16.2517 2.98714 14.2121 2.25 12 2.25C6.61522 2.25 2.25 6.61522 2.25 12C2.25 17.3848 6.61522 21.75 12 21.75C14.2158 21.75 16.2581 21.0098 17.8955 19.7646C17.9972 19.6929 18.1209 19.6504 18.2549 19.6504C18.6001 19.6504 18.8799 19.9302 18.8799 20.2754C18.8798 20.4935 18.7671 20.6842 18.5977 20.7959L18.5996 20.7988C16.761 22.1801 14.4766 23 12 23C5.92487 23 1 18.0751 1 12C1 5.92487 5.92487 1 12 1Z"/>
    <path d="M19.3756 16.9428C19.1338 17.2032 18.7418 17.2032 18.5 16.9428C18.2583 16.6825 18.2583 16.2604 18.5 16L21.8865 12.6666H12.5C12.1582 12.6666 11.8809 12.3682 11.8809 12.0001C11.8809 11.6319 12.1582 11.3334 12.5 11.3334H21.8865L18.5 8.44293C18.2583 8.18253 18.2583 7.76043 18.5 7.50003C18.7418 7.23973 19.1338 7.23973 19.3756 7.50003L23.8188 11.5286C23.8768 11.591 23.9227 11.6652 23.9538 11.7469C23.9844 11.8273 24.0001 11.9133 24 12.0001C24.0002 12.1698 23.9401 12.3333 23.832 12.4567L23.8171 12.4732L19.3756 16.9428Z"/>
  </g>
</svg>
