<!-- See: https://www.svgrepo.com/svg/448061/logout -->
<svg width="32" height="32" viewBox="0 0 32 32" fill="none" xmlns="http://www.w3.org/2000/svg">
<path d="M28.6667 16C28.6667 22.2592 23.5926 27.3333 17.3333 27.3333C15.5228 27.3333 13.8132 26.9093 12.2967 26.1556C11.9669 25.9918 11.5668 26.1262 11.4029 26.4559C11.2392 26.7857 11.3736 27.1858 11.7033 27.3497C13.4 28.1928 15.3123 28.6667 17.3333 28.6667C24.329 28.6667 30 22.9956 30 16C30 9.0044 24.3289 3.33334 17.3333 3.33334C15.3123 3.33334 13.4 3.80722 11.7033 4.6504C11.3736 4.81428 11.2392 5.21428 11.4029 5.544C11.5668 5.87372 11.9669 6.00828 12.2967 5.8444C13.8132 5.09081 15.5228 4.66668 17.3333 4.66668C23.5925 4.66668 28.6667 9.74081 28.6667 16L28.6667 16Z" fill="white"/>
<path d="M7.52853 21.8047C7.78894 22.0651 8.21106 22.0651 8.47147 21.8047C8.73175 21.5444 8.73175 21.1223 8.47147 20.8619L4.27613 16.6666L15.3333 16.6666C15.7014 16.6666 16 16.3681 16 16C16 15.6318 15.7014 15.3333 15.3333 15.3333L4.27613 15.3333L8.47147 11.1381C8.73175 10.8777 8.73175 10.4556 8.47147 10.1952C8.21106 9.9349 7.78894 9.9349 7.52853 10.1952L2.19519 15.5285C2.13269 15.5909 2.08324 15.6651 2.04972 15.7468C2.0168 15.8272 1.99991 15.9132 2 16C1.99974 16.1697 2.06448 16.3332 2.18094 16.4567L2.19694 16.4731L7.52853 21.8047Z" fill="white"/>
</svg>
