<svg width="24" height="24" viewBox="0 0 24 24" fill="none" xmlns="http://www.w3.org/2000/svg">
  <g fill="currentColor">
    <path d="M15.5 8C15.9141 8.0001 16.25 8.33585 16.25 8.75V15.25C16.25 15.6642 15.9141 15.9999 15.5 16C15.0858 16 14.75 15.6642 14.75 15.25V8.75C14.75 8.33579 15.0858 8 15.5 8Z"/>
    <path d="M10.2041 8.0293C10.2695 8.03496 10.3358 8.04644 10.4004 8.07031C10.4104 8.07402 10.42 8.07894 10.4297 8.08301C10.4555 8.09353 10.4804 8.10583 10.5049 8.11914C10.5174 8.12609 10.53 8.13303 10.542 8.14062C10.6788 8.2255 10.7914 8.35295 10.8516 8.51562L13.2324 14.9551C13.376 15.3435 13.1774 15.7752 12.7891 15.9189C12.4006 16.0626 11.9689 15.864 11.8252 15.4756L10.1436 10.9268L8.4541 15.4971C8.31045 15.8855 7.87867 16.0839 7.49023 15.9404C7.1018 15.7968 6.90327 15.365 7.04688 14.9766L9.43652 8.51367C9.53407 8.24991 9.76508 8.0771 10.0244 8.03613C10.0296 8.03525 10.0349 8.03396 10.04 8.0332C10.0803 8.02773 10.1209 8.02613 10.1621 8.02734C10.1761 8.02762 10.1902 8.02824 10.2041 8.0293Z"/>
    <path fill-rule="evenodd" clip-rule="evenodd" d="M12 0C18.6274 0 24 5.37258 24 12C24 18.6274 18.6274 24 12 24C5.37258 24 0 18.6274 0 12C0 5.37258 5.37258 0 12 0ZM12 1.2002C6.03532 1.2002 1.2002 6.03532 1.2002 12C1.2002 17.9647 6.03532 22.7998 12 22.7998C17.9647 22.7998 22.7998 17.9647 22.7998 12C22.7998 6.03532 17.9647 1.2002 12 1.2002Z"/>
  </g>
</svg>
