<svg width="24" height="24" viewBox="0 0 24 24" fill="none" xmlns="http://www.w3.org/2000/svg">
	<g fill="currentColor">
		<path d="M14.4004 12C14.7315 12.0002 14.9998 12.2685 15 12.5996C15 12.9309 14.7316 13.2 14.4004 13.2002H5.59961C5.26842 13.2 5 12.9308 5 12.5996C5.00021 12.2685 5.26855 12.0002 5.59961 12H14.4004Z"/>
		<path d="M18.4004 8C18.7315 8.00021 18.9998 8.26855 19 8.59961C19 8.93085 18.7316 9.19998 18.4004 9.2002H5.59961C5.26842 9.19998 5 8.93085 5 8.59961C5.00021 8.26855 5.26855 8.00021 5.59961 8H18.4004Z"/>
		<path fill-rule="evenodd" clip-rule="evenodd" d="M22.5605 2C22.871 2 23.123 2.252 23.123 2.5625V19.0625C23.123 19.373 22.871 19.625 22.5605 19.625H16.7939L12.459 23.9609C12.3578 24.0621 12.2176 24.125 12.0625 24.125C11.9073 24.125 11.7661 24.061 11.6641 23.959L7.33105 19.625H1.5625C1.252 19.625 1 19.373 1 19.0625V2.5625C1 2.252 1.252 2 1.5625 2H22.5605ZM2.12402 18.5H7.56543C7.71993 18.5 7.86066 18.564 7.96191 18.666L12.0615 22.7676L16.1631 18.6641C16.265 18.5629 16.4055 18.5001 16.5605 18.5H22L21.999 3.125H2.12402V18.5Z"/>
	</g>
</svg>
