<svg width="24" height="24" viewBox="0 0 24 24" fill="none" xmlns="http://www.w3.org/2000/svg">
	<!-- https://www.svgrepo.com/svg/472927/apps -->
	<path fill="currentColor" d="M9 0.9375H3C1.8615 0.939 0.939 1.8615 0.9375 3V9C0.939 10.1385 1.8615 11.061 3 11.0625H9C10.1385 11.061 11.061 10.1385 11.0625 9V3C11.061 1.8615 10.1385 0.939 9 0.9375ZM9.9375 9C9.93675 9.5175 9.5175 9.93675 9 9.9375H3C2.4825 9.93675 2.06325 9.5175 2.0625 9V3C2.06325 2.4825 2.4825 2.06325 3 2.0625H9C9.5175 2.06325 9.93675 2.4825 9.9375 3V9ZM9 12.9375H3C1.8615 12.939 0.939 13.8615 0.9375 15V21C0.939 22.1385 1.8615 23.061 3 23.0625H9C10.1385 23.061 11.061 22.1385 11.0625 21V15C11.061 13.8615 10.1385 12.939 9 12.9375ZM9.9375 21C9.93675 21.5175 9.5175 21.9367 9 21.9375H3C2.4825 21.9367 2.06325 21.5175 2.0625 21V15C2.06325 14.4825 2.4825 14.0633 3 14.0625H9C9.5175 14.0633 9.93675 14.4825 9.9375 15V21ZM21 0.9375H15C13.8615 0.939 12.939 1.8615 12.9375 3V9C12.939 10.1385 13.8615 11.061 15 11.0625H21C22.1385 11.061 23.061 10.1385 23.0625 9V3C23.061 1.8615 22.1385 0.939 21 0.9375ZM21.9375 9C21.9367 9.5175 21.5175 9.93675 21 9.9375H15C14.4825 9.93675 14.0633 9.5175 14.0625 9V3C14.0633 2.4825 14.4825 2.06325 15 2.0625H21C21.5175 2.06325 21.9367 2.4825 21.9375 3V9ZM21 12.9375H15C13.8615 12.939 12.939 13.8615 12.9375 15V21C12.939 22.1385 13.8615 23.061 15 23.0625H21C22.1385 23.061 23.061 22.1385 23.0625 21V15C23.061 13.8615 22.1385 12.939 21 12.9375ZM21.9375 21C21.9367 21.5175 21.5175 21.9367 21 21.9375H15C14.4825 21.9367 14.0633 21.5175 14.0625 21V15C14.0633 14.4825 14.4825 14.0633 15 14.0625H21C21.5175 14.0633 21.9367 14.4825 21.9375 15V21Z" />
</svg>
